<svg width="29" height="28" viewBox="0 0 29 28" fill="none" xmlns="http://www.w3.org/2000/svg">
<path d="M6.36494 27.5061C5.75832 27.5081 5.15724 27.3905 4.59609 27.1601C3.0683 26.5303 1.89266 25.0935 1.1019 22.8896C-1.96174 14.3501 2.21127 7.97028 3.37458 7.5508C3.41154 7.53762 3.44976 7.5283 3.48864 7.52298C3.5164 7.51955 3.54433 7.51783 3.57231 7.51787C4.98795 7.51787 11.3818 11.2869 12.571 20.0919C12.8845 22.4121 12.5031 24.229 11.437 25.4919C10.615 26.4355 9.46434 27.0305 8.21918 27.1556C7.62853 27.3876 6.99953 27.5065 6.36494 27.5061ZM3.70018 8.64061C2.92089 9.38528 -0.644008 14.763 2.13799 22.5179C2.81937 24.4166 3.78747 25.6361 5.01578 26.1423C5.92843 26.4992 6.94377 26.4895 7.8494 26.1151C7.91695 26.083 7.99026 26.065 8.06497 26.062C9.04568 25.9716 9.95452 25.509 10.6046 24.7691C11.4542 23.7539 11.7482 22.2295 11.4791 20.238C10.3763 12.0732 4.73478 8.94264 3.70018 8.64082V8.64061Z" fill="black"/>
<path d="M6.88842 22.2555C6.76517 22.2555 6.64549 22.214 6.54859 22.1379C6.45169 22.0617 6.38319 21.9552 6.35403 21.8354L4.87019 15.7561C4.83558 15.6143 4.85872 15.4646 4.93452 15.3398C5.01032 15.2151 5.13259 15.1255 5.2744 15.0909C5.41622 15.0563 5.56597 15.0794 5.69072 15.1552C5.81548 15.231 5.90501 15.3533 5.93963 15.4951L7.42344 21.5746C7.4432 21.6556 7.44429 21.7401 7.42663 21.8216C7.40896 21.9031 7.37302 21.9795 7.32149 22.0451C7.26996 22.1107 7.20418 22.1638 7.12916 22.2002C7.05414 22.2367 6.97183 22.2556 6.88842 22.2555Z" fill="black"/>
<path d="M19.12 27.5071C18.704 27.509 18.2906 27.4424 17.8963 27.31C17.0488 26.8732 16.3194 26.238 15.7702 25.4586C15.2211 24.6792 14.8684 23.7786 14.7422 22.8335C14.7634 21.5461 15.4644 20.2896 16.8248 19.0991C19.6335 16.6408 22.4552 15.9433 24.3278 15.791C26.2818 15.6321 28.0218 16.0144 28.4233 16.4706C28.4492 16.5001 28.4719 16.5323 28.491 16.5667C28.7862 17.0977 28.5604 18.8667 27.7535 20.6524C26.9802 22.3645 25.3747 24.7869 22.1139 26.6048C21.0375 27.2059 20.0352 27.5071 19.12 27.5071ZM16.73 24.9158C17.0497 25.5468 17.5982 26.0318 18.2636 26.2718C19.1735 26.5743 20.2888 26.3629 21.577 25.6439C26.7731 22.7464 27.5375 18.1395 27.5154 17.1822C26.6212 16.8394 22.026 16.0091 17.5491 19.9272C16.4325 20.9043 15.8584 21.8881 15.8422 22.8515C15.848 23.5528 16.1193 24.2259 16.6013 24.7353C16.6562 24.7861 16.7 24.8476 16.73 24.916V24.9158Z" fill="black"/>
<path d="M19.3446 23.4909C19.2276 23.4911 19.1136 23.454 19.0191 23.385C18.9247 23.3159 18.8546 23.2186 18.8192 23.1071C18.7838 22.9956 18.7849 22.8757 18.8223 22.7648C18.8597 22.6539 18.9314 22.5579 19.0271 22.4905L22.8902 19.7686C22.9493 19.727 23.016 19.6974 23.0865 19.6816C23.157 19.6657 23.23 19.6639 23.3012 19.6762C23.3724 19.6886 23.4404 19.7148 23.5015 19.7535C23.5626 19.7921 23.6154 19.8424 23.6571 19.9015C23.6987 19.9606 23.7283 20.0273 23.7441 20.0978C23.76 20.1683 23.7618 20.2412 23.7495 20.3124C23.7371 20.3836 23.7109 20.4517 23.6722 20.5128C23.6336 20.5739 23.5833 20.6267 23.5242 20.6684L19.6611 23.3905C19.5686 23.4559 19.458 23.491 19.3446 23.4909Z" fill="black"/>
<path d="M18.5769 15.38C17.8194 15.3719 17.0806 15.1439 16.4501 14.7239C15.534 14.4157 14.7682 13.7726 14.3062 12.9236C13.7125 11.7907 13.7261 10.3623 14.3464 8.67776C15.6263 5.20143 17.7538 3.25309 19.3133 2.23082C20.9403 1.16457 22.6412 0.671368 23.208 0.878457C23.2448 0.89203 23.28 0.909403 23.3132 0.930287C23.8229 1.25377 24.468 2.90326 24.6133 4.84289C24.7526 6.70223 24.5035 9.57642 22.5265 12.7091C21.5683 14.2269 20.4439 15.1079 19.1842 15.3275C18.9836 15.3625 18.7805 15.38 18.5769 15.38ZM17.0332 13.7881C17.61 14.1857 18.3172 14.3475 19.0096 14.2403C19.9441 14.0716 20.8149 13.3588 21.5955 12.1214C24.739 7.13915 23.2253 2.76521 22.7516 1.9375C21.8064 2.06494 17.4151 3.52919 15.3797 9.05815C14.8714 10.4387 14.8383 11.567 15.2813 12.4126C15.6187 13.0198 16.1737 13.4765 16.8344 13.6908C16.9065 13.7095 16.9742 13.7426 17.0332 13.7881Z" fill="black"/>
<path d="M18.369 11.3807C18.2755 11.3806 18.1835 11.3566 18.1018 11.3111C18.0201 11.2655 17.9513 11.2 17.902 11.1205C17.8526 11.0411 17.8243 10.9503 17.8198 10.8569C17.8152 10.7635 17.8345 10.6704 17.8758 10.5865L19.9484 6.38106C19.9804 6.31622 20.0248 6.25831 20.0791 6.21064C20.1334 6.16296 20.1966 6.12645 20.265 6.10319C20.3335 6.07994 20.4058 6.07041 20.478 6.07511C20.5501 6.07982 20.6206 6.09867 20.6854 6.13062C20.7503 6.16258 20.8082 6.20699 20.8558 6.26133C20.9035 6.31566 20.94 6.37884 20.9633 6.44728C20.9865 6.51572 20.9961 6.58807 20.9914 6.6602C20.9867 6.73232 20.9678 6.80281 20.9358 6.86764L18.8633 11.0732C18.8178 11.1655 18.7474 11.2432 18.6601 11.2976C18.5727 11.3519 18.4719 11.3807 18.369 11.3807Z" fill="black"/>
<path d="M11.8636 9.89394C11.7852 9.89387 11.7078 9.87706 11.6365 9.84465C5.92107 7.25126 4.56086 2.17707 4.91408 1.28691C4.92865 1.2505 4.94693 1.21569 4.96866 1.18304C5.28131 0.717466 6.77767 0.141208 8.65061 0.0222651C10.381 -0.0877576 13.053 0.157994 15.9571 1.95022C16.0784 2.02821 16.1643 2.15068 16.1962 2.29129C16.2282 2.43191 16.2037 2.57945 16.128 2.70219C16.0523 2.82494 15.9315 2.91311 15.7915 2.94773C15.6515 2.98235 15.5036 2.96064 15.3794 2.88732C12.8072 1.3007 10.4503 1.04498 8.9263 1.11019C7.38832 1.17582 6.32907 1.57259 5.96078 1.77139C6.00559 2.18302 6.27363 3.26455 7.07395 4.55381C8.28133 6.45134 10.0281 7.94487 12.0902 8.84278C12.2047 8.8948 12.298 8.98446 12.3544 9.09685C12.4109 9.20924 12.4272 9.33757 12.4006 9.46051C12.374 9.58345 12.3061 9.69358 12.2082 9.77255C12.1103 9.85152 11.9883 9.8946 11.8625 9.89459L11.8636 9.89394Z" fill="black"/>
</svg>
