<svg width="29" height="34" viewBox="0 0 29 34" fill="none" xmlns="http://www.w3.org/2000/svg">
<path d="M24.8161 20.0546C24.8672 20.0595 24.9187 20.0543 24.9677 20.0392C25.0167 20.024 25.0623 19.9993 25.1017 19.9665C25.1411 19.9337 25.1736 19.8933 25.1973 19.8478C25.221 19.8023 25.2354 19.7526 25.2398 19.7015C25.3359 18.6444 25.4031 17.5345 25.4365 16.4018C25.4395 16.2983 25.4013 16.1979 25.3302 16.1225C25.2592 16.0472 25.1611 16.0032 25.0576 16.0002C25.0064 15.9987 24.9553 16.0073 24.9074 16.0255C24.8595 16.0437 24.8156 16.0712 24.7783 16.1064C24.703 16.1775 24.659 16.2755 24.656 16.379C24.6222 17.4958 24.5567 18.5894 24.4624 19.6306C24.4535 19.7336 24.4857 19.836 24.552 19.9154C24.6182 19.9948 24.7132 20.0448 24.8161 20.0546V20.0546Z" fill="black"/>
<path d="M23.2739 27.6895C23.3726 27.7197 23.4791 27.7099 23.5706 27.6623C23.6621 27.6147 23.7312 27.5331 23.7632 27.435C24.3814 25.4218 24.819 23.3575 25.0707 21.2665C25.0838 21.1637 25.0555 21.0599 24.9921 20.978C24.9287 20.896 24.8353 20.8426 24.7326 20.8294C24.6813 20.8201 24.6286 20.8217 24.578 20.8341C24.5273 20.8465 24.4799 20.8694 24.4386 20.9013C24.3974 20.9332 24.3634 20.9734 24.3387 21.0194C24.3141 21.0653 24.2993 21.1159 24.2955 21.1679C24.0494 23.2122 23.6219 25.2307 23.0182 27.1993C23.0027 27.2483 22.997 27.2998 23.0015 27.351C23.0059 27.4022 23.0205 27.452 23.0442 27.4975C23.068 27.5431 23.1005 27.5835 23.1399 27.6164C23.1794 27.6494 23.2249 27.6742 23.2739 27.6895V27.6895Z" fill="black"/>
<path d="M13.299 12.5339L13.3406 12.5616C13.3085 12.6097 13.2673 12.651 13.2193 12.6832C13.1712 12.7154 13.1173 12.7377 13.0606 12.7491C13.0039 12.7604 12.9455 12.7605 12.8888 12.7492C12.8321 12.738 12.7782 12.7157 12.7301 12.6836C12.682 12.6516 12.6406 12.6103 12.6085 12.5623C12.5763 12.5143 12.5539 12.4603 12.5426 12.4036C12.5313 12.347 12.5312 12.2886 12.5424 12.2319L13.299 12.5339ZM13.299 12.5339L13.3406 12.5616C14.1894 11.2884 14.3939 10.2028 14.2852 9.23719C14.1769 8.2753 13.7578 7.43693 13.3693 6.65946L13.3681 6.65709L13.3681 6.65708M13.299 12.5339L13.3681 6.65708M13.3681 6.65708C12.9756 5.87211 12.6155 5.15037 12.5291 4.35768M13.3681 6.65708L12.5291 4.35768M12.608 1.14601L12.608 1.14601C12.6728 1.04886 12.7735 0.981428 12.888 0.958542C13.0025 0.935655 13.1214 0.95919 13.2186 1.02397C13.3157 1.08875 13.3831 1.18947 13.406 1.30397L12.608 1.14601ZM12.608 1.14601C11.7592 2.41922 11.5548 3.50486 11.6636 4.47047C11.7719 5.43184 12.1905 6.26989 12.5787 7.04714L12.5805 7.05083L12.5806 7.05086M12.608 1.14601L12.5806 7.05086M12.5806 7.05086C12.9732 7.83567 13.3334 8.55733 13.4198 9.34998C13.5058 10.1393 13.3204 11.0043 12.608 12.0731L12.5806 7.05086ZM12.5291 4.35768C12.443 3.56827 12.6284 2.70331 13.3406 1.63451L12.5291 4.35768Z" fill="black" stroke="black" stroke-width="0.1"/>
<path d="M21.4123 6.65709L21.4123 6.65708C21.0198 5.87211 20.6597 5.15037 20.5733 4.35768C20.4873 3.56827 20.6726 2.70331 21.3849 1.6345L21.3849 1.63451L21.3855 1.63346C21.4468 1.53636 21.4678 1.41914 21.4439 1.30682C21.42 1.1945 21.3531 1.09596 21.2576 1.03223C21.162 0.968502 21.0454 0.944617 20.9325 0.965677C20.8196 0.986735 20.7194 1.05107 20.6533 1.14496L20.6533 1.14495L20.6526 1.14601C19.8038 2.41922 19.5993 3.50486 19.708 4.47047C19.8162 5.43204 20.2349 6.27023 20.6232 7.04762L20.6248 7.05083L20.6248 7.05086C21.0174 7.83567 21.3777 8.55733 21.4641 9.34998C21.5501 10.1392 21.3649 11.004 20.6529 12.0726C20.6193 12.1205 20.5956 12.1746 20.5831 12.2318C20.5706 12.2892 20.5697 12.3485 20.5805 12.4063C20.5912 12.464 20.6134 12.5191 20.6458 12.5681C20.6782 12.6171 20.72 12.6592 20.7689 12.6918C20.8178 12.7244 20.8727 12.7469 20.9304 12.7579C20.9881 12.769 21.0474 12.7684 21.1049 12.7562C21.1624 12.7439 21.2168 12.7203 21.265 12.6867C21.313 12.6533 21.3539 12.6106 21.3852 12.5611C22.2337 11.2881 22.4382 10.2026 22.3294 9.23719C22.2211 8.27531 21.8021 7.43694 21.4135 6.65946L21.4123 6.65709Z" fill="black" stroke="black" stroke-width="0.1"/>
<path d="M17.3216 12.5339L17.3632 12.5616C17.3311 12.6097 17.2899 12.651 17.2418 12.6832C17.1938 12.7154 17.1399 12.7377 17.0832 12.7491C17.0265 12.7604 16.9681 12.7605 16.9114 12.7492C16.8547 12.738 16.8007 12.7157 16.7526 12.6836C16.7045 12.6516 16.6632 12.6103 16.631 12.5623C16.5989 12.5143 16.5765 12.4603 16.5651 12.4036C16.5538 12.347 16.5538 12.2886 16.565 12.2319L17.3216 12.5339ZM17.3216 12.5339L17.3632 12.5616C18.212 11.2884 18.4165 10.2028 18.3077 9.23719C18.1994 8.2753 17.7804 7.43693 17.3918 6.65946L17.3906 6.65709L17.3906 6.65708M17.3216 12.5339L17.3906 6.65708M17.3906 6.65708C16.9981 5.87211 16.638 5.15037 16.5516 4.35768M17.3906 6.65708L16.5516 4.35768M16.6306 1.14601L16.6306 1.14601C16.6954 1.04886 16.7961 0.981428 16.9106 0.958542C17.0251 0.935655 17.144 0.95919 17.2411 1.02397C17.3383 1.08875 17.4057 1.18947 17.4286 1.30397L16.6306 1.14601ZM16.6306 1.14601C15.7818 2.41922 15.5773 3.50486 15.686 4.47047C15.7943 5.43227 16.2132 6.27064 16.6018 7.04818L16.6031 7.05083L16.6031 7.05086M16.6306 1.14601L16.6031 7.05086M16.6031 7.05086C16.9959 7.83567 17.3561 8.55733 17.4425 9.34997C17.5285 10.1393 17.343 11.0043 16.6306 12.0731L16.6031 7.05086ZM16.5516 4.35768C16.4656 3.56827 16.6509 2.70331 17.3632 1.63451L16.5516 4.35768Z" fill="black" stroke="black" stroke-width="0.1"/>
<path d="M5.69154 16.5603L2.95557 16.5603L2.95536 16.5603C2.66407 16.5615 2.37651 16.6259 2.11253 16.749C1.84854 16.8722 1.61441 17.0511 1.42629 17.2735C1.23816 17.4959 1.10053 17.7565 1.02287 18.0372C0.945217 18.318 0.929402 18.6122 0.976501 18.8997L0.976534 18.8999L2.02204 25.1258C2.02205 25.1258 2.02206 25.1259 2.02207 25.1259C2.09759 25.5959 2.33849 26.0234 2.70136 26.3314C3.06427 26.6395 3.52529 26.8078 4.00133 26.806M5.69154 16.5603L10.4427 32.9211M5.69154 16.5603C5.65332 15.7054 5.63141 14.8144 5.63141 13.8786L5.69154 16.5603ZM4.00133 26.806H4.00114V26.756L4.00133 26.806ZM4.00133 26.806H7.33082M7.33082 26.806C8.6663 31.0841 10.3212 32.7995 10.4427 32.9211M7.33082 26.806C7.32716 26.7943 7.32351 26.7825 7.31987 26.7708L7.36761 26.756V26.806H7.33082ZM10.4427 32.9211C10.4427 32.9211 10.4427 32.9211 10.4427 32.9211C10.4836 32.962 10.532 32.9944 10.5854 33.0165C10.6388 33.0386 10.696 33.05 10.7538 33.05H23.2387C23.3554 33.05 23.4673 33.0037 23.5499 32.9213L10.4427 32.9211ZM4.00114 25.9764H7.08699C7.08251 25.9597 7.07805 25.9431 7.07359 25.9264M4.00114 25.9764L1.82181 18.2573C1.86711 18.0925 1.94772 17.9395 2.05806 17.8089C2.1684 17.6783 2.30582 17.5732 2.4608 17.501C2.61577 17.4289 2.7846 17.3912 2.95557 17.3908H5.78662M4.00114 25.9764C3.72207 25.9773 3.45184 25.8785 3.23919 25.6978C3.02653 25.5171 2.88542 25.2663 2.84129 24.9908L4.00114 25.9764ZM7.07359 25.9264H7.12535C6.37852 23.1366 5.92976 20.2754 5.78662 17.3908M7.07359 25.9264H4.00114H4.00097C3.73382 25.9273 3.47514 25.8327 3.27157 25.6597C3.06799 25.4867 2.93291 25.2466 2.89067 24.9829L2.8906 24.9825L1.84505 18.7553C1.84504 18.7553 1.84504 18.7553 1.84504 18.7553C1.81812 18.5938 1.82665 18.4284 1.87003 18.2706C1.9134 18.1127 1.9906 17.9662 2.09625 17.8411C2.20191 17.7161 2.3335 17.6155 2.48191 17.5464C2.63028 17.4773 2.79192 17.4412 2.9556 17.4408H2.95557V17.3908L2.9557 17.4408L5.73907 17.4408M7.07359 25.9264C6.33202 23.1526 5.88471 20.3084 5.73907 17.4408M5.78662 17.3908V17.4408H5.73907M5.78662 17.3908L5.73668 17.3933C5.73747 17.4091 5.73826 17.425 5.73907 17.4408M28.362 13.8785C28.362 27.9358 23.7601 32.7132 23.5501 32.9211L28.362 13.8785ZM28.362 13.8785C28.362 13.7618 28.3157 13.6498 28.2331 13.5672M28.362 13.8785L28.2331 13.5672M28.2331 13.5672C28.1505 13.4847 28.0386 13.4383 27.9218 13.4383M28.2331 13.5672L27.9218 13.4383M27.9218 13.4383H6.07168M27.9218 13.4383H6.07168M6.07168 13.4383C6.01385 13.4382 5.95658 13.4496 5.90315 13.4717C5.84971 13.4938 5.80115 13.5262 5.76026 13.5671C5.71936 13.608 5.68694 13.6566 5.66483 13.71C5.64272 13.7635 5.63137 13.8207 5.63141 13.8785L6.07168 13.4383ZM10.9515 32.1704C10.2521 31.339 6.60071 26.4167 6.51413 14.3188H27.4799C27.3931 26.4167 23.7417 31.3389 23.0426 32.1704H10.9515Z" fill="black" stroke="black" stroke-width="0.1"/>
</svg>
