<svg width="38" height="38" viewBox="0 0 38 38" fill="none" xmlns="http://www.w3.org/2000/svg">
<path fill-rule="evenodd" clip-rule="evenodd" d="M19.0853 0.229858C8.6807 0.229858 0.246094 8.66446 0.246094 19.0691C0.246094 29.4737 8.6807 37.9083 19.0853 37.9083C29.4899 37.9083 37.9245 29.4737 37.9245 19.0691C37.9245 8.66446 29.4899 0.229858 19.0853 0.229858ZM18.5606 16.194L18.521 15.5422C18.4024 13.8526 19.4435 12.3094 21.0907 11.7107C21.6969 11.4978 22.7247 11.4712 23.3968 11.6575C23.6603 11.7373 24.1611 12.0034 24.5169 12.2429L25.1626 12.6819L25.8742 12.4557C26.2695 12.336 26.7966 12.1364 27.0338 12.0034C27.2578 11.8837 27.4555 11.8171 27.4555 11.857C27.4555 12.0832 26.9679 12.8548 26.5594 13.2805C26.0059 13.8792 26.1641 13.9324 27.2842 13.5333C27.9562 13.3071 27.9694 13.3071 27.8376 13.5599C27.7586 13.693 27.3501 14.1586 26.9152 14.5843C26.1772 15.316 26.1377 15.3958 26.1377 16.0078C26.1377 16.9523 25.6897 18.9213 25.2416 19.9989C24.4114 22.021 22.6325 24.1097 20.8535 25.1607C18.3497 26.6374 15.0158 27.0099 12.2089 26.1452C11.2733 25.8525 9.66566 25.1075 9.66566 24.9745C9.66566 24.9345 10.1532 24.8813 10.7462 24.868C11.9849 24.8414 13.2236 24.4955 14.2778 23.8836L14.9894 23.4578L14.1724 23.1785C13.0128 22.7794 11.9718 21.8614 11.7082 20.9967C11.6291 20.7173 11.6555 20.704 12.3934 20.704L13.1577 20.6907L12.512 20.3847C11.7477 19.9989 11.0493 19.347 10.7067 18.6818C10.4563 18.2029 10.1401 16.9923 10.2323 16.8991C10.2587 16.8592 10.5354 16.939 10.8517 17.0455C11.7609 17.3781 11.8795 17.2982 11.3524 16.7395C10.3641 15.7284 10.061 14.2251 10.5354 12.8016L10.7594 12.163L11.6291 13.0278C13.4081 14.7705 15.5034 15.8082 17.9017 16.1142L18.5606 16.194Z" fill="#910F3F"/>
</svg>
