<svg width="21" height="18" viewBox="0 0 21 18" fill="none" xmlns="http://www.w3.org/2000/svg">
<path d="M10.6124 17.4874L10.5772 17.4726L10.3752 17.3873L10.4105 17.3039L10.3752 17.3873C9.6705 17.0896 8.53018 16.3288 6.99116 15.1357L6.99115 15.1357C6.02538 14.3868 5.00946 13.5617 4.15225 12.6223L4.15224 12.6223C3.9061 12.3524 3.67322 12.0922 3.46011 11.8486C2.76083 11.0532 2.1767 10.1636 1.72483 9.20572L1.72474 9.20553C1.58397 8.90529 1.46673 8.64007 1.37641 8.4174L1.3764 8.41739C0.854391 7.12997 0.768075 5.74909 1.12735 4.42488M10.6124 17.4874L1.21484 4.44826M10.6124 17.4874L10.6476 17.4726L10.8496 17.3875L10.8497 17.3874C11.559 17.0883 12.6666 16.3456 14.2298 15.127L14.1741 15.0556M10.6124 17.4874L10.8145 17.304M1.12735 4.42488C1.12738 4.42477 1.12741 4.42465 1.12744 4.42454L1.21484 4.44826M1.12735 4.42488C1.12732 4.42499 1.12729 4.4251 1.12726 4.42522L1.21484 4.44826M1.12735 4.42488C1.17749 4.23434 1.23915 4.04701 1.31196 3.86393L1.31223 3.86326L1.31223 3.86326L1.31253 3.86252L1.31271 3.86209C1.72504 2.86392 2.45095 2.0696 3.46634 1.49966C4.2544 1.05731 4.96155 0.902594 5.10821 0.873818L5.10771 0.873922L5.12612 0.962571L5.10871 0.873719L5.1164 0.87212M1.21484 4.44826C1.26407 4.26114 1.32461 4.07719 1.39612 3.8974L1.39642 3.89666C1.80031 2.91892 2.51143 2.13951 3.51066 1.57863C4.28818 1.1422 4.98583 0.990084 5.12613 0.962592L5.13562 0.960619M5.1164 0.87212L5.13562 0.960619M5.1164 0.87212L5.1172 0.87195L5.13562 0.960619M5.1164 0.87212C5.3954 0.811517 5.68012 0.781143 5.96562 0.781523L5.9655 0.872086M5.13562 0.960619C5.40827 0.901397 5.6865 0.871715 5.9655 0.872086M5.9655 0.872086V0.781523C6.46394 0.781523 6.98232 0.871799 7.50613 1.0487L7.50613 1.0487C8.13661 1.26167 8.78487 1.60241 9.43307 2.05975L9.43326 2.05989C9.82935 2.34086 10.2066 2.64745 10.5627 2.9777C10.5627 2.97772 10.5627 2.97773 10.5627 2.97774L10.5895 3.0025L10.6162 2.97768C10.9719 2.64649 11.3489 2.33893 11.7447 2.05696L11.7449 2.05683C12.3925 1.59796 13.0403 1.25577 13.6706 1.04135M5.9655 0.872086L13.6706 1.04135M13.6706 1.04135C14.1976 0.862023 14.7193 0.770593 15.2209 0.770585M13.6706 1.04135L15.2209 0.770585M15.2209 0.770585C15.5029 0.770227 15.7841 0.799879 16.0599 0.859038C16.06 0.859068 16.0602 0.859099 16.0603 0.859129L16.0684 0.860791C16.2145 0.8891 16.9224 1.04199 17.7123 1.48267C18.7294 2.05018 19.4578 2.84277 19.8725 3.83852L19.8727 3.8389L19.8733 3.84047L19.8736 3.84108C19.9472 4.02401 20.0095 4.2113 20.0602 4.40189C20.4236 5.72514 20.3416 7.10626 19.8237 8.39505L19.7396 8.36128L19.8237 8.39506C19.7341 8.61777 19.6177 8.88327 19.4778 9.18404L19.4777 9.18423C19.0288 10.1433 18.4474 11.0344 17.7505 11.8316M15.2209 0.770585L19.3957 9.14584C18.9504 10.0972 18.3736 10.9812 17.6823 11.772C17.4694 12.0167 17.2378 12.2771 16.9939 12.5459C16.145 13.4814 15.1369 14.305 14.1741 15.0556M15.2209 0.770585C15.2208 0.770585 15.2208 0.770585 15.2208 0.770586L15.2209 0.861148V0.770585C15.2209 0.770585 15.2209 0.770585 15.2209 0.770585ZM17.7505 11.8316L17.6824 11.7721L17.7506 11.8315C17.7506 11.8315 17.7505 11.8316 17.7505 11.8316ZM17.7505 11.8316C17.5372 12.0768 17.3052 12.3376 17.0609 12.6068C16.2065 13.5484 15.1931 14.376 14.2298 15.127L14.1741 15.0556M14.1741 15.0556C12.6102 16.2747 11.5113 17.0102 10.8145 17.304M10.8145 17.304L10.6124 17.3891L10.8145 17.304ZM5.96532 2.00119H5.96549C6.32851 2.00119 6.71545 2.06903 7.11571 2.20431L7.11573 2.20432C7.63157 2.37856 8.17466 2.66465 8.7297 3.05633C9.0821 3.30644 9.41776 3.57933 9.73453 3.87328L9.73466 3.8734L10.5294 4.60792L10.591 4.66483L10.6525 4.6078L11.4459 3.87177L11.446 3.87165C11.7625 3.57684 12.0979 3.30305 12.4501 3.05203C13.0047 2.65902 13.5476 2.3716 14.0634 2.19608C14.4662 2.05905 14.8556 1.99029 15.2209 1.99029L15.221 1.99029C15.4173 1.98993 15.613 2.01055 15.8049 2.05181L15.8058 2.052L15.834 2.05776L15.8351 2.05797C15.8947 2.0694 16.4702 2.18639 17.1179 2.54779C17.8947 2.98117 18.4407 3.57342 18.7459 4.30612L18.7473 4.30948C18.7474 4.30964 18.7474 4.3098 18.7475 4.30996C18.8011 4.44498 18.8465 4.5831 18.8835 4.72357L18.8837 4.7245C19.1759 5.78823 19.1098 6.89985 18.6917 7.93998C18.6106 8.14171 18.503 8.38711 18.3717 8.66936C17.9711 9.5247 17.4523 10.3195 16.8304 11.0305L16.8303 11.0307C16.6226 11.2694 16.3962 11.5239 16.1575 11.7869L16.2179 11.8417L16.1575 11.7869C15.367 12.658 14.4055 13.4431 13.4797 14.1649C11.9499 15.3575 11.0899 15.9042 10.6127 16.151C9.99183 15.83 8.98885 15.141 7.73857 14.1716L7.68993 14.2343L7.73857 14.1716C6.81035 13.4519 5.84632 12.6691 5.0533 11.8C4.8127 11.5363 4.58551 11.2824 4.37801 11.0452L4.37785 11.045C3.75378 10.3355 3.23243 9.54191 2.82907 8.68742C2.69699 8.40576 2.58863 8.16071 2.5068 7.95892C2.08547 6.91978 2.0158 5.80833 2.30465 4.74394L2.30487 4.74309C2.34161 4.60231 2.38667 4.46384 2.43979 4.32839L2.44071 4.32616C2.44073 4.32613 2.44074 4.32609 2.44076 4.32605C2.74417 3.59159 3.28832 2.99821 4.06337 2.56322L4.06337 2.56321C4.7099 2.20031 5.28511 2.08191 5.34469 2.07033L5.34469 2.07033L5.34579 2.07011L5.37384 2.0643L5.37384 2.0643L5.37471 2.06411C5.56874 2.02192 5.76676 2.00082 5.96532 2.00119Z" fill="black" stroke="black" stroke-width="0.181126"/>
</svg>
