<svg width="19" height="12" viewBox="0 0 19 12" fill="none" xmlns="http://www.w3.org/2000/svg">
<path d="M9.12141 7.19616L17.7858 0.222504C17.606 0.0798401 17.3836 0.00149504 17.1541 -3.05176e-05H1.08862C0.859146 0.00152094 0.636798 0.0798645 0.457031 0.222504L9.12141 7.19616Z" fill="white"/>
<path d="M18.208 10.9763C18.2302 10.8845 18.2419 10.7905 18.2429 10.6961V1.32019L13.0547 5.49628L18.208 10.9763Z" fill="white"/>
<path d="M12.1631 6.21371L9.12198 8.66192L6.08027 6.21371L0.808594 11.8258C0.899654 11.8542 0.994305 11.8693 1.08966 11.8708H17.1538C17.2492 11.8693 17.3438 11.8542 17.4349 11.8258L12.1631 6.21371Z" fill="white"/>
<path d="M5.18829 5.49628L0 1.32019V10.6961C0.000934559 10.7905 0.0126229 10.8845 0.0348419 10.9763L5.18829 5.49628Z" fill="white"/>
</svg>
