<svg width="19" height="21" viewBox="0 0 19 21" fill="none" xmlns="http://www.w3.org/2000/svg">
<path d="M1.61478 18.7864L1.8322 15.3073H16.7642L16.9814 18.7864H1.61478ZM5.15288 5.78842V7.14825C5.15288 7.49413 5.43302 7.77467 5.7789 7.77467C6.12477 7.77467 6.40531 7.49413 6.40531 7.14825V5.78842H12.1913V7.14825C12.1913 7.49413 12.4715 7.77467 12.8173 7.77467C13.1632 7.77467 13.4438 7.49413 13.4438 7.14825V5.78842H16.1694L16.7121 14.4721H1.8843L2.42687 5.78842H5.15288ZM6.40531 3.55689C6.40531 2.28643 7.70343 1.25243 9.29812 1.25243C10.8932 1.25243 12.1913 2.28643 12.1913 3.55689V4.53599H6.40531V3.55689ZM17.3834 5.12313C17.3622 4.79289 17.0892 4.53599 16.7582 4.53599H13.4438V3.55689C13.4438 1.59549 11.5837 -1.90735e-06 9.29812 -1.90735e-06C7.01249 -1.90735e-06 5.15288 1.59549 5.15288 3.55689V4.53599H1.83826C1.50717 4.53599 1.23396 4.79289 1.21276 5.12313L0.323197 19.3736C0.312617 19.5463 0.373815 19.715 0.492044 19.8417C0.610273 19.9671 0.775755 20.0388 0.94857 20.0388H17.6475C17.8206 20.0388 17.9862 19.9671 18.1044 19.8417C18.2226 19.715 18.2835 19.5463 18.2731 19.3736L17.3834 5.12313Z" fill="black"/>
</svg>
