<svg width="22" height="20" viewBox="0 0 22 20" fill="none" xmlns="http://www.w3.org/2000/svg">
<path d="M10.7435 19.1446L10.5205 19.0504C9.75589 18.7274 8.50619 17.8953 6.80614 16.5773C5.74029 15.7508 4.62435 14.8441 3.684 13.8136C3.41258 13.516 3.15587 13.2292 2.92105 12.9608C2.15504 12.0895 1.51518 11.115 1.0202 10.0658C0.865243 9.73527 0.73656 9.44411 0.637691 9.20037C0.0693354 7.79865 -0.0243981 6.29612 0.366621 4.8552C0.420984 4.64859 0.487828 4.44546 0.566788 4.24694L0.56712 4.24612C1.0131 3.16649 1.79833 2.30587 2.90169 1.68654C3.76023 1.20463 4.53058 1.03666 4.68549 1.00631L4.69597 1.00413C4.99703 0.938733 5.30426 0.905958 5.61234 0.906368C6.15065 0.906368 6.71223 1.00387 7.2815 1.19613C7.96693 1.42766 8.6742 1.79898 9.3836 2.29951C9.81742 2.60724 10.2306 2.94304 10.6206 3.30476L10.7183 3.39507L10.8159 3.30456C11.2054 2.94184 11.6183 2.60498 12.0518 2.29616C12.7605 1.79396 13.4673 1.42105 14.1525 1.18794C14.7254 0.993043 15.2905 0.894291 15.8322 0.894291C16.1367 0.893899 16.4404 0.925928 16.7381 0.989834L16.749 0.99207C16.9046 1.02221 17.675 1.18837 18.5345 1.66791C19.6398 2.28461 20.4277 3.14339 20.8762 4.22038L20.8769 4.22211C20.9568 4.42041 21.0244 4.62345 21.0792 4.83008C21.4748 6.26997 21.3858 7.77277 20.8218 9.17598C20.7238 9.41977 20.596 9.71124 20.442 10.0423C19.9503 11.0928 19.3135 12.0689 18.5501 12.9422C18.315 13.2124 18.0592 13.4999 17.7899 13.7967C16.8526 14.8297 15.7395 15.739 14.6764 16.5679C12.9495 17.914 11.7361 18.7261 10.9666 19.0506L10.7435 19.1446ZM5.61232 2.05313C5.38586 2.05271 5.16002 2.07677 4.93873 2.12489L4.90775 2.13131C4.8364 2.14518 4.18979 2.27858 3.46304 2.68652C2.58987 3.17658 1.97235 3.8481 1.62781 4.6822L1.62612 4.68633C1.56602 4.83957 1.51505 4.99623 1.47348 5.1555C1.14872 6.35227 1.22723 7.60193 1.70054 8.76927C1.79179 8.99429 1.91225 9.26664 2.0586 9.57873C2.50799 10.5308 3.08885 11.415 3.78415 12.2054C4.0138 12.468 4.26513 12.7488 4.5312 13.0404C5.4131 14.0069 6.48352 14.8758 7.50889 15.6708C8.92041 16.7652 10.0529 17.5412 10.7438 17.8897C11.2698 17.6244 12.231 17.0197 13.9711 15.6632C14.9938 14.8659 16.0614 13.9945 16.9404 13.0258C17.2045 12.7349 17.4549 12.4534 17.6848 12.1892C18.3776 11.397 18.9557 10.5114 19.402 9.55834C19.5475 9.24568 19.6671 8.97299 19.7575 8.74809C20.2271 7.5796 20.3017 6.32975 19.9731 5.13374C19.9312 4.97457 19.8798 4.81806 19.8191 4.66507L19.8169 4.6598C19.4703 3.82772 18.8506 3.15756 17.9756 2.66937C17.2475 2.26312 16.6006 2.13131 16.5292 2.11762L16.4981 2.11126C16.2792 2.06421 16.056 2.04069 15.8322 2.0411C15.4164 2.0411 14.9755 2.11935 14.5219 2.27366C13.9414 2.4712 13.3334 2.79361 12.7149 3.23189C12.3223 3.51164 11.9485 3.81677 11.5958 4.14533L10.7197 4.95806L9.84214 4.147C9.48912 3.81941 9.11503 3.51528 8.72229 3.23656C8.10329 2.79974 7.49503 2.47881 6.91442 2.28269C6.46366 2.13034 6.02556 2.05313 5.61232 2.05313Z" fill="black"/>
</svg>
