<svg width="53" height="43" viewBox="0 0 53 43" fill="none" xmlns="http://www.w3.org/2000/svg">
<path d="M52.8097 21.8687C52.795 21.8387 52.7833 21.8073 52.7748 21.7749L47.7386 11.7025C47.6447 11.5137 47.4999 11.355 47.3205 11.2442C47.1411 11.1335 46.9343 11.0752 46.7234 11.0759H32.6613V2.07878C32.6606 1.77827 32.5409 1.49026 32.3283 1.27787C32.1157 1.06549 31.8276 0.946027 31.527 0.945709H1.13425C0.833731 0.946027 0.545581 1.06549 0.33297 1.27787C0.120359 1.49026 0.000636523 1.77827 0 2.07878V34.1615C0.000318397 34.4623 0.119921 34.7506 0.332566 34.9632C0.545211 35.1759 0.833522 35.2955 1.13425 35.2958H6.19931C6.27207 35.2956 6.34413 35.3098 6.4114 35.3375C6.47867 35.3653 6.53983 35.406 6.59134 35.4574C6.64285 35.5088 6.68371 35.5698 6.71159 35.637C6.73947 35.7043 6.75381 35.7763 6.75381 35.8491C6.75381 37.4934 7.40699 39.0704 8.56971 40.2331C9.73242 41.3958 11.3094 42.049 12.9537 42.049C14.5981 42.049 16.175 41.3958 17.3377 40.2331C18.5004 39.0704 19.1536 37.4934 19.1536 35.8491C19.1536 35.7763 19.168 35.7043 19.1959 35.637C19.2238 35.5698 19.2646 35.5088 19.3161 35.4574C19.3676 35.406 19.4288 35.3653 19.496 35.3375C19.5633 35.3098 19.6354 35.2956 19.7081 35.2958H34.9045C35.0513 35.2958 35.192 35.3541 35.2958 35.4578C35.3996 35.5616 35.4578 35.7023 35.4578 35.8491C35.4578 37.4934 36.111 39.0704 37.2737 40.2331C38.4365 41.3958 40.0134 42.049 41.6577 42.049C43.3021 42.049 44.879 41.3958 46.0417 40.2331C47.2045 39.0704 47.8577 37.4934 47.8577 35.8491C47.858 35.7022 47.9166 35.5615 48.0205 35.4578C48.1245 35.354 48.2653 35.2958 48.4122 35.2958H51.7897C52.0904 35.2955 52.3787 35.1759 52.5914 34.9632C52.804 34.7506 52.9236 34.4623 52.924 34.1615V22.3426C52.9212 22.1782 52.8822 22.0164 52.8097 21.8687ZM12.395 3.76753C12.395 3.69477 12.4094 3.62272 12.4372 3.55551C12.4651 3.4883 12.506 3.42726 12.5575 3.37586C12.609 3.32447 12.6702 3.28375 12.7374 3.25602C12.8047 3.22828 12.8768 3.21408 12.9495 3.21424H19.7033C19.8501 3.21424 19.9908 3.27254 20.0946 3.3763C20.1983 3.48007 20.2566 3.62078 20.2566 3.76753V14.1214C20.2569 14.2216 20.2298 14.3201 20.1783 14.4061C20.1268 14.4922 20.0528 14.5625 19.9643 14.6097C19.876 14.6574 19.7763 14.68 19.676 14.6751C19.5757 14.6703 19.4787 14.6381 19.3954 14.5821L16.9549 12.9546C16.7685 12.8308 16.5497 12.7647 16.3258 12.7647C16.102 12.7647 15.8832 12.8308 15.6967 12.9546L13.2562 14.5821C13.1729 14.6379 13.0759 14.67 12.9757 14.675C12.8755 14.68 12.7758 14.6576 12.6874 14.6102C12.5989 14.5629 12.5249 14.4924 12.4734 14.4063C12.4219 14.3202 12.3948 14.2217 12.395 14.1214V3.76753ZM12.9495 39.7811C11.907 39.7801 10.9074 39.3656 10.1702 38.6284C9.43302 37.8912 9.01845 36.8916 9.01749 35.8491C9.02357 35.4075 9.10494 34.9702 9.25807 34.5561C9.26409 34.5404 9.27252 34.5212 9.28094 34.5031C9.48203 33.9564 9.80219 33.4612 10.2183 33.0535C10.6343 32.6457 11.1359 32.3356 11.6866 32.1456C11.7443 32.1252 11.8069 32.1071 11.8622 32.0903C12.5739 31.8609 13.3396 31.8609 14.0513 32.0903C14.1103 32.1071 14.1716 32.1251 14.2317 32.1468C14.7812 32.3372 15.2814 32.6474 15.6962 33.055C16.111 33.4625 16.43 33.9571 16.6301 34.5031C16.6409 34.5236 16.6502 34.545 16.6578 34.5669C16.807 34.9781 16.885 35.4117 16.8887 35.8491C16.8884 36.8924 16.4738 37.893 15.736 38.6308C14.9982 39.3685 13.9977 39.7832 12.9543 39.7835L12.9495 39.7811ZM30.3904 32.4727C30.3904 32.6198 30.332 32.7609 30.228 32.8649C30.124 32.9688 29.9829 33.0273 29.8359 33.0273H18.7784C18.6806 33.0246 18.585 32.9971 18.5008 32.9472C18.4166 32.8973 18.3466 32.8267 18.2973 32.7422C18.278 32.7145 18.2588 32.6869 18.2431 32.6604C18.1325 32.4788 18.0242 32.3176 17.9099 32.1648C17.8269 32.0446 17.7343 31.9447 17.6429 31.8389L17.6165 31.8088C17.4389 31.6033 17.248 31.4096 17.0451 31.229C16.9152 31.1088 16.7588 30.9777 16.5989 30.8598C16.4786 30.7696 16.3475 30.6842 16.2068 30.5952C16.0057 30.4708 15.7976 30.3579 15.5837 30.2572L15.5067 30.2211C15.4165 30.1778 15.3251 30.1345 15.2277 30.1008C14.9446 29.9884 14.6535 29.8975 14.3568 29.829C14.2546 29.8061 14.1523 29.7845 14.0453 29.7664C13.6886 29.6966 13.3262 29.6592 12.9627 29.6546C12.5957 29.6589 12.2297 29.6964 11.8694 29.7664C11.7659 29.7845 11.6637 29.8061 11.5639 29.829C11.2651 29.8975 10.9719 29.9888 10.687 30.102C10.5932 30.1393 10.5018 30.1826 10.4104 30.2223L10.3358 30.2572C10.121 30.3587 9.91222 30.4724 9.71034 30.5976C9.57081 30.6854 9.44211 30.7708 9.32062 30.8598C9.15944 30.9801 9.00306 31.1136 8.87195 31.2302C8.67043 31.4106 8.48042 31.6035 8.30303 31.8076L8.27539 31.8401C8.18397 31.9459 8.09136 32.0518 8.00596 32.1672C7.8941 32.3188 7.78582 32.48 7.67636 32.6592C7.65717 32.6912 7.63628 32.7221 7.61382 32.7518C7.56509 32.8362 7.49494 32.9062 7.41046 32.9548C7.32597 33.0034 7.23015 33.0288 7.1327 33.0285H2.82901C2.68195 33.0285 2.5409 32.9701 2.43691 32.8661C2.33292 32.7621 2.27452 32.621 2.27452 32.474V3.76753C2.27452 3.69477 2.28889 3.62272 2.31677 3.55551C2.34465 3.4883 2.38548 3.42726 2.43698 3.37586C2.48849 3.32447 2.54965 3.28375 2.61692 3.25602C2.68419 3.22828 2.75625 3.21408 2.82901 3.21424H9.58282C9.72967 3.21424 9.87053 3.2725 9.97448 3.37623C10.0784 3.47996 10.137 3.62067 10.1373 3.76753V17.2764C10.1371 17.4818 10.1926 17.6833 10.2981 17.8596C10.4036 18.0358 10.5549 18.1801 10.736 18.2769C10.9172 18.3738 11.1212 18.4196 11.3263 18.4095C11.5315 18.3993 11.73 18.3336 11.9007 18.2194L16.0299 15.4674C16.1209 15.407 16.2275 15.3748 16.3367 15.3747C16.4461 15.3749 16.5531 15.4071 16.6446 15.4674L20.7726 18.2194C20.9435 18.3331 21.142 18.3984 21.347 18.4083C21.552 18.4181 21.7559 18.3723 21.9369 18.2755C22.1179 18.1788 22.2693 18.0348 22.375 17.8589C22.4807 17.6829 22.5368 17.4816 22.5372 17.2764V3.76753C22.5372 3.62078 22.5955 3.48007 22.6992 3.3763C22.803 3.27254 22.9437 3.21424 23.0905 3.21424H29.8443C29.917 3.21408 29.9891 3.22828 30.0564 3.25602C30.1237 3.28375 30.1848 3.32447 30.2363 3.37586C30.2878 3.42726 30.3287 3.4883 30.3566 3.55551C30.3844 3.62272 30.3988 3.69477 30.3988 3.76753L30.3904 32.4727ZM42.795 13.8989C42.795 13.7518 42.8534 13.6107 42.9574 13.5068C43.0614 13.4028 43.2024 13.3444 43.3495 13.3444H45.683C45.7859 13.3446 45.8867 13.3734 45.9742 13.4275C46.0617 13.4817 46.1324 13.5591 46.1786 13.6511L49.5549 20.4049C49.5974 20.4894 49.6176 20.5833 49.6135 20.6778C49.6094 20.7723 49.5812 20.8642 49.5315 20.9446C49.4818 21.0251 49.4123 21.0915 49.3296 21.1375C49.2469 21.1834 49.1539 21.2074 49.0593 21.2072H43.3495C43.2766 21.2073 43.2045 21.1931 43.1371 21.1653C43.0698 21.1375 43.0086 21.0967 42.9571 21.0451C42.9055 20.9936 42.8647 20.9324 42.8369 20.8651C42.8091 20.7977 42.7948 20.7255 42.795 20.6527V13.8989ZM41.6608 39.7811C40.6184 39.7798 39.6192 39.3651 38.8823 38.6279C38.1453 37.8908 37.7309 36.8914 37.7299 35.8491C37.7335 35.4083 37.8125 34.9714 37.9633 34.5572C37.97 34.5386 37.9781 34.5206 37.9874 34.5031C38.1883 33.9563 38.5084 33.461 38.9245 33.0533C39.3406 32.6455 39.8422 32.3355 40.393 32.1456C40.4519 32.1252 40.5133 32.1071 40.5686 32.0903C41.2803 31.8609 42.0461 31.8609 42.7577 32.0903C42.8179 32.1071 42.878 32.1251 42.9382 32.1468C43.4877 32.3374 43.988 32.6476 44.403 33.0551C44.8179 33.4626 45.1372 33.9572 45.3378 34.5031C45.3481 34.5239 45.3573 34.5452 45.3655 34.5669C45.5143 34.9781 45.592 35.4117 45.5952 35.8491C45.595 36.3659 45.4931 36.8776 45.2951 37.3551C45.0972 37.8325 44.8072 38.2663 44.4416 38.6316C44.076 38.9969 43.6421 39.2867 43.1645 39.4844C42.687 39.682 42.1752 39.7836 41.6584 39.7835L41.6608 39.7811ZM50.6578 32.4727C50.6575 32.6197 50.599 32.7606 50.4951 32.8645C50.3912 32.9684 50.2503 33.027 50.1033 33.0273H47.486C47.3882 33.0248 47.2926 32.9972 47.2084 32.9473C47.1242 32.8974 47.0541 32.8268 47.0049 32.7422C46.9856 32.7145 46.9664 32.6869 46.9495 32.6604C46.8473 32.4897 46.7365 32.3243 46.6176 32.1648C46.5334 32.0446 46.442 31.9447 46.3493 31.8389L46.3229 31.8088C46.1457 31.6033 45.9553 31.4096 45.7528 31.229C45.6216 31.1088 45.4665 30.9777 45.3065 30.8598C45.1862 30.7696 45.0551 30.6842 44.9144 30.5952C44.7132 30.471 44.5051 30.3582 44.2913 30.2572L44.2144 30.2211C44.1229 30.1778 44.0327 30.1345 43.9353 30.1008C43.6518 29.9884 43.3604 29.8975 43.0633 29.829C42.961 29.8061 42.86 29.7845 42.7517 29.7664C42.395 29.6965 42.0327 29.6591 41.6692 29.6546C41.3025 29.6589 40.937 29.6964 40.577 29.7664C40.4724 29.7845 40.3713 29.8061 40.2715 29.829C39.9727 29.8974 39.6795 29.9887 39.3946 30.102C39.2996 30.1393 39.2094 30.1826 39.118 30.2223L39.0434 30.2572C38.8287 30.3587 38.6199 30.4723 38.418 30.5976C38.2773 30.6854 38.1485 30.7708 38.0271 30.8598C37.8659 30.9801 37.7107 31.1136 37.5796 31.2302C37.3778 31.4103 37.1877 31.6032 37.0107 31.8076L36.983 31.8401C36.8904 31.9459 36.799 32.0518 36.7136 32.1672C36.6005 32.3188 36.4923 32.48 36.384 32.6592C36.366 32.6881 36.3467 32.7157 36.3202 32.7518C36.2715 32.8362 36.2014 32.9062 36.1169 32.9548C36.0324 33.0034 35.9366 33.0288 35.8391 33.0285H33.2242C33.0772 33.0281 32.9364 32.9696 32.8325 32.8657C32.7285 32.7618 32.67 32.6209 32.6697 32.474V13.3492H39.978C40.1251 13.3492 40.2661 13.4076 40.3701 13.5116C40.4741 13.6156 40.5325 13.7566 40.5325 13.9037V22.3426C40.5328 22.6434 40.6524 22.9317 40.8651 23.1443C41.0777 23.357 41.3661 23.4766 41.6668 23.4769H50.1094C50.2563 23.4772 50.3972 23.5357 50.5011 23.6397C50.605 23.7436 50.6635 23.8844 50.6639 24.0314L50.6578 32.4727Z" fill="white"/>
<path d="M14.1859 35.8492C14.1862 36.0739 14.1197 36.2936 13.9951 36.4805C13.8704 36.6674 13.693 36.8131 13.4855 36.8992C13.278 36.9853 13.0496 37.0079 12.8292 36.9641C12.6089 36.9203 12.4064 36.8122 12.2476 36.6533C12.0887 36.4944 11.9805 36.292 11.9367 36.0716C11.893 35.8513 11.9155 35.6228 12.0016 35.4153C12.0877 35.2078 12.2335 35.0305 12.4204 34.9058C12.6073 34.7811 12.827 34.7147 13.0516 34.7149C13.3525 34.7149 13.641 34.8345 13.8537 35.0472C14.0664 35.2599 14.1859 35.5484 14.1859 35.8492Z" fill="white"/>
<path d="M42.795 35.8492C42.795 36.0735 42.7285 36.2928 42.6038 36.4794C42.4792 36.6659 42.3021 36.8112 42.0948 36.8971C41.8875 36.9829 41.6595 37.0054 41.4395 36.9617C41.2194 36.9179 41.0173 36.8099 40.8587 36.6512C40.7001 36.4926 40.5921 36.2905 40.5483 36.0705C40.5045 35.8505 40.527 35.6224 40.6128 35.4151C40.6987 35.2079 40.8441 35.0307 41.0306 34.9061C41.2171 34.7815 41.4364 34.7149 41.6607 34.7149C41.9616 34.7149 42.2501 34.8345 42.4628 35.0472C42.6755 35.2599 42.795 35.5484 42.795 35.8492Z" fill="white"/>
</svg>
