<svg width="51" height="51" viewBox="0 0 51 51" fill="none" xmlns="http://www.w3.org/2000/svg">
<path d="M45.5745 39.1722C45.3718 39.172 45.1733 39.1141 45.0024 39.0051C44.7606 38.8524 44.5894 38.6099 44.5263 38.331C44.4633 38.0521 44.5135 37.7596 44.6659 37.5177C47.8206 32.4958 48.9243 26.4533 47.7485 20.6405C47.6914 20.3601 47.7481 20.0685 47.9061 19.8299C48.064 19.5913 48.3102 19.4252 48.5906 19.3681C48.661 19.3533 48.7327 19.346 48.8046 19.3464C49.0533 19.3466 49.2944 19.4327 49.487 19.5901C49.6796 19.7475 49.812 19.9665 49.8619 20.2102C51.1507 26.5684 49.9436 33.1787 46.491 38.671C46.3934 38.8256 46.2581 38.9528 46.0977 39.0405C45.9373 39.1282 45.7572 39.1735 45.5745 39.1722V39.1722Z" fill="white"/>
<path d="M30.0084 15.0728C29.813 15.0728 29.6212 15.0197 29.4536 14.9193C29.286 14.8188 29.1489 14.6747 29.0568 14.5024C28.9647 14.33 28.9211 14.1359 28.9307 13.9408C28.9403 13.7456 29.0027 13.5567 29.1113 13.3942C29.7167 12.5605 30.372 11.7642 31.0737 11.0097C33.2831 8.50842 35.2592 6.12844 35.2592 4.40983C35.2937 3.83106 35.097 3.26228 34.7123 2.82854C34.4118 2.53512 34.0314 2.33689 33.6188 2.25866C33.2062 2.18044 32.7797 2.2257 32.3927 2.38879C32.0057 2.55187 31.6754 2.82553 31.4432 3.17547C31.211 3.52542 31.0872 3.93609 31.0874 4.35606C31.0874 4.64222 30.9737 4.91668 30.7714 5.11903C30.569 5.32138 30.2946 5.43506 30.0084 5.43506C29.7222 5.43506 29.4478 5.32138 29.2454 5.11903C29.0431 4.91668 28.9294 4.64222 28.9294 4.35606C28.9147 3.78712 29.0145 3.22103 29.2229 2.69143C29.4312 2.16182 29.744 1.6795 30.1424 1.27315C30.5409 0.866803 31.017 0.544716 31.5425 0.326017C32.0679 0.107317 32.632 -0.00352066 33.2011 8.5237e-05C33.7702 0.00369114 34.3328 0.121663 34.8554 0.347003C35.378 0.572343 35.85 0.900442 36.2433 1.31181C36.6366 1.72317 36.9432 2.2094 37.1449 2.74161C37.3465 3.27381 37.4391 3.84112 37.4172 4.40983C37.4172 6.86646 35.2569 9.52563 33.044 12.0383C32.9768 12.1145 32.933 12.2084 32.9179 12.3088C32.9028 12.4093 32.917 12.5119 32.9588 12.6045C33.0006 12.697 33.0683 12.7755 33.1536 12.8306C33.2389 12.8856 33.3383 12.9149 33.4399 12.9148H36.4343C36.7205 12.9148 36.9949 13.0285 37.1973 13.2308C37.3996 13.4332 37.5133 13.7076 37.5133 13.9938C37.5133 14.28 37.3996 14.5544 37.1973 14.7568C36.9949 14.9591 36.7205 15.0728 36.4343 15.0728H30.0084Z" fill="white"/>
<path d="M47.6775 15.0728C47.3914 15.0725 47.1171 14.9588 46.9149 14.7565C46.7126 14.5542 46.5988 14.2799 46.5985 13.9939V12.392C46.5986 12.3227 46.5851 12.2542 46.5588 12.1902C46.5324 12.1262 46.4936 12.068 46.4447 12.019C46.3959 11.97 46.3378 11.9312 46.2738 11.9046C46.2099 11.8781 46.1414 11.8645 46.0722 11.8645H41.2527C41.069 11.8642 40.8883 11.817 40.7279 11.7275C40.5674 11.6379 40.4325 11.5089 40.3358 11.3527C40.2391 11.1964 40.1839 11.0181 40.1754 10.8345C40.1668 10.651 40.2052 10.4683 40.287 10.3037L45.1064 0.666015C45.1956 0.4862 45.3333 0.334938 45.504 0.229374C45.6746 0.123809 45.8715 0.0681592 46.0722 0.0687299H47.6741C47.9601 0.0690328 48.2344 0.182808 48.4367 0.385094C48.639 0.587379 48.7527 0.861644 48.753 1.14772V9.17898C48.753 9.31887 48.8086 9.45306 48.9076 9.55198C49.0065 9.6509 49.1406 9.70648 49.2805 9.70648C49.5667 9.70648 49.8412 9.82014 50.0435 10.0225C50.2459 10.2248 50.3596 10.4993 50.3596 10.7855C50.3596 11.0716 50.2459 11.3461 50.0435 11.5484C49.8412 11.7508 49.5667 11.8645 49.2805 11.8645C49.1406 11.8645 49.0065 11.92 48.9076 12.019C48.8086 12.1179 48.753 12.2521 48.753 12.392V13.9939C48.7527 14.2793 48.6394 14.5531 48.4379 14.7553C48.2364 14.9575 47.963 15.0716 47.6775 15.0728V15.0728ZM46.0756 4.2085C45.9775 4.20851 45.8814 4.2358 45.7979 4.28733C45.7145 4.33886 45.647 4.4126 45.603 4.50028L43.3844 8.9387C43.3442 9.01908 43.3253 9.1084 43.3293 9.19816C43.3334 9.28793 43.3603 9.37516 43.4075 9.4516C43.4547 9.52805 43.5207 9.59118 43.5991 9.63498C43.6776 9.67878 43.7659 9.7018 43.8558 9.70188H46.0756C46.1448 9.70188 46.2133 9.68823 46.2773 9.66171C46.3412 9.63519 46.3993 9.59633 46.4482 9.54733C46.4971 9.49834 46.5358 9.44017 46.5622 9.37618C46.5886 9.31219 46.6021 9.24362 46.6019 9.1744V4.73599C46.6021 4.61726 46.5622 4.50196 46.4887 4.40873C46.4152 4.3155 46.3124 4.2498 46.1969 4.22224C46.1557 4.21489 46.1139 4.2122 46.0722 4.21423L46.0756 4.2085Z" fill="white"/>
<path d="M38.8029 42.1483L37.3154 40.6608C37.2641 40.6097 37.2239 40.5485 37.1973 40.4812C37.1707 40.4138 37.1583 40.3416 37.1609 40.2692C37.1635 40.1969 37.181 40.1258 37.2123 40.0605C37.2436 39.9951 37.288 39.937 37.3429 39.8896C38.0008 39.3411 38.5544 38.6782 38.9768 37.933C39.0499 37.7998 39.0947 37.653 39.1084 37.5017C39.129 37.1423 39.1202 36.7818 39.0821 36.4238C38.8766 34.6234 38.0878 32.9397 36.836 31.6295C35.8808 30.5735 34.6914 29.756 33.3633 29.2427C32.9772 29.0986 32.5693 29.0212 32.1573 29.0139C31.7881 29.0108 31.4234 29.0939 31.092 29.2564C30.7792 29.4179 30.4789 29.6026 30.1938 29.8091L28.7784 30.7565C28.6951 30.8125 28.5974 30.8435 28.497 30.8457C28.3967 30.8479 28.2977 30.8213 28.212 30.7691C27.6822 30.4487 26.4957 29.4521 24.5448 26.3856C22.579 23.2424 22.1866 21.6943 22.1282 21.0581C22.1192 20.9638 22.1357 20.8688 22.1759 20.7831C22.2162 20.6973 22.2787 20.624 22.357 20.5707L23.8159 19.6049C24.1119 19.4247 24.3942 19.2227 24.6603 19.0008C25.2247 18.4475 25.5556 17.699 25.5849 16.9092C25.6691 15.474 25.4286 14.0382 24.8812 12.7088C24.2409 11.0171 23.0589 9.5849 21.5195 8.63535C21.2146 8.45444 20.8954 8.2987 20.5652 8.16966C20.4489 8.12773 20.3262 8.10606 20.2025 8.10558C20.1644 8.10316 20.1262 8.10316 20.0881 8.10558C14.4219 8.66282 11.4424 16.5018 11.3188 16.8337C11.2469 17.0283 11.2318 17.2395 11.2753 17.4424C12.5131 22.3181 14.4571 26.9867 17.0456 31.3C17.0547 31.3146 17.0628 31.3299 17.0696 31.3458C17.0822 31.3709 17.0959 31.3961 17.1062 31.4133L17.3351 31.7817C17.3534 31.8092 17.3728 31.8343 17.3934 31.8595C17.4025 31.8709 17.4109 31.8827 17.4186 31.895C20.4166 35.7323 23.8813 39.1809 27.7326 42.1609C27.8946 42.2851 28.0887 42.3605 28.2921 42.3783C28.2921 42.3783 28.688 42.4172 29.3391 42.4172C31.187 42.4175 33.02 42.0866 34.7512 41.4401C34.8131 41.4153 34.8791 41.4025 34.9457 41.4023C34.9762 41.4082 35.0061 41.4171 35.035 41.4286L35.6345 42.0328C35.6425 42.0419 35.6471 42.0568 35.6551 42.0648L37.1655 43.5523C37.1976 43.5834 37.2253 43.6189 37.2479 43.6575C37.3953 43.9203 37.4676 44.2185 37.4569 44.5196C37.4462 44.8207 37.3529 45.1131 37.1872 45.3647C34.8588 48.2516 29.0324 48.2516 25.173 48.2516C22.0579 48.2514 18.9754 47.6189 16.112 46.3924C13.2486 45.1658 10.664 43.3708 8.51473 41.116C6.36549 38.8611 4.69638 36.1935 3.60847 33.2746C2.52056 30.3557 2.0365 27.2464 2.18564 24.1349C2.50117 18.7768 4.6555 13.6916 8.28506 9.73748C11.9146 5.78335 16.7972 3.20242 22.1088 2.43026C22.6111 2.36161 23.1294 2.30897 23.6489 2.27236C23.7904 2.26291 23.9286 2.22567 24.0557 2.16275C24.1828 2.09982 24.2963 2.01246 24.3896 1.90566C24.4829 1.79886 24.5542 1.6747 24.5995 1.5403C24.6448 1.40591 24.6631 1.2639 24.6535 1.12241C24.6327 0.844936 24.506 0.58609 24.2996 0.39949C24.0932 0.21289 23.8229 0.112847 23.5448 0.120088H23.5036C22.9429 0.157847 22.3742 0.216195 21.8158 0.291713C16.0067 1.13815 10.6674 3.96227 6.69839 8.28768C2.72942 12.6131 0.373769 18.1751 0.02881 24.0354C-0.133792 27.4384 0.396081 30.839 1.58633 34.0312C2.77657 37.2234 4.60241 40.1408 6.95326 42.6067C9.30412 45.0726 12.1311 47.0356 15.2628 48.3768C18.3946 49.718 21.766 50.4096 25.173 50.4096C29.4397 50.4096 35.8874 50.4096 38.8635 46.7206C39.3643 46.0607 39.6303 45.2524 39.6193 44.424C39.6083 43.5957 39.321 42.7947 38.8029 42.1483ZM36.868 37.2465C35.0624 39.964 30.9833 40.2581 29.3162 40.2581C29.1914 40.2581 29.0793 40.2581 28.9809 40.2581C28.8668 40.2549 28.7568 40.2147 28.6674 40.1437C25.1235 37.3677 21.934 34.167 19.1704 30.6135C19.153 30.5867 19.1339 30.5611 19.1132 30.5368C19.0838 30.5021 19.0591 30.4636 19.04 30.4224V30.4167C19.0252 30.3963 19.0125 30.3744 19.0022 30.3515L18.9759 30.3057C16.5633 26.3028 14.723 21.9819 13.5088 17.4687C13.4822 17.3595 13.4919 17.2447 13.5363 17.1415C13.7972 16.5236 16.1966 11.084 19.8695 10.3277C19.9046 10.3205 19.9402 10.3166 19.9759 10.3162C20.0626 10.3164 20.1479 10.338 20.2242 10.3791C20.286 10.4112 20.3386 10.4455 20.4004 10.4775L20.4451 10.5039C21.5598 11.2102 22.4144 12.26 22.8799 13.4948C23.3073 14.5117 23.5001 15.6119 23.4441 16.7135C23.4326 16.836 23.42 16.9264 23.4097 16.9881C23.411 17.0655 23.3953 17.1422 23.3637 17.2128C23.332 17.2833 23.2853 17.3461 23.2267 17.3966C23.0774 17.519 22.9195 17.6303 22.7541 17.7296L22.658 17.7914L20.8467 18.9894C20.4716 19.2265 20.1995 19.5962 20.0846 20.0249C19.6269 21.5124 20.4897 23.969 22.7232 27.539C24.9853 31.086 26.8252 32.9008 28.3459 33.085C28.4271 33.0951 28.5089 33.1 28.5907 33.0999C28.9709 33.1068 29.3432 32.9913 29.6526 32.7703L31.4227 31.5861C31.6195 31.451 31.7728 31.3389 31.83 31.292C31.9248 31.2171 32.0422 31.1767 32.163 31.1776C32.3324 31.1893 32.4989 31.2279 32.6561 31.292H32.6664C33.6646 31.6917 34.5559 32.3185 35.2695 33.1227C36.1873 34.0831 36.7711 35.3137 36.9344 36.6321C36.9447 36.7316 36.955 36.838 36.9607 36.9433C36.9621 37.0515 36.9297 37.1575 36.868 37.2465V37.2465Z" fill="white"/>
</svg>
