<svg width="58" height="64" viewBox="0 0 58 64" fill="none" xmlns="http://www.w3.org/2000/svg">
<path d="M28.8299 52.5367C43.0613 52.5367 54.5982 40.9998 54.5982 26.7683C54.5982 12.5369 43.0613 1 28.8299 1C14.5984 1 3.06152 12.5369 3.06152 26.7683C3.06152 40.9998 14.5984 52.5367 28.8299 52.5367Z" fill="#EBEDF0"/>
<path d="M48.4137 50.5369C56.6908 52.5369 56.6596 57.5879 56.6596 62.8443H1C1 57.5875 0.979901 52.5369 9.24587 50.5369C10.4931 50.2277 11.9153 49.8363 13.3276 49.342C16.7388 54.5988 22.573 57.691 28.8298 57.691C35.0866 57.691 40.9208 54.5988 44.332 49.342C45.6709 49.8111 47.0333 50.21 48.4137 50.5369Z" fill="#FF87B3"/>
<path d="M46.3525 23.6763V27.7992C46.3535 28.7132 46.05 29.6014 45.4901 30.3237C44.9302 31.0461 44.1457 31.5613 43.2603 31.7883C42.9246 31.8802 42.5777 31.9253 42.2296 31.9222H41.7142C41.3898 31.9258 41.0729 31.8243 40.8109 31.6329C40.549 31.4415 40.356 31.1705 40.2608 30.8603C40.1995 30.7062 40.1681 30.5419 40.1681 30.3761V21.0995C40.1626 20.7444 40.2872 20.3997 40.5185 20.1302C40.7056 19.8872 40.9656 19.7105 41.2603 19.6259C41.4063 19.5756 41.5599 19.551 41.7142 19.5534H42.2296C42.9692 19.5562 43.6948 19.7552 44.3323 20.1302C44.9484 20.4945 45.4588 21.0132 45.8131 21.6351C46.1674 22.257 46.3533 22.9606 46.3525 23.6763Z" fill="#FF87B3"/>
<path d="M42.3222 48.5686C42.9825 48.8566 43.6621 49.1143 44.3321 49.3417C40.9209 54.5984 35.0868 57.6906 28.8299 57.6906C22.5729 57.6906 16.7388 54.5984 13.3276 49.3417C17.4818 47.8986 21.6147 45.5892 21.6147 42.2296V38.1582C23.5836 39.9933 26.088 41.1989 28.8299 41.1989C31.5718 41.1989 34.0762 39.993 36.045 38.1582V41.1989C36.045 41.1989 35.8799 42.7138 36.808 44.4561C36.5488 44.3289 36.2607 44.272 35.9726 44.2911L31.5094 44.59C31.1066 44.6126 30.7131 44.7197 30.3545 44.9044C29.9958 45.0891 29.6801 45.3473 29.4278 45.6621C29.1799 45.9689 29.0024 46.3264 28.908 46.7093C28.8135 47.0923 28.8044 47.4913 28.8811 47.8782L28.9537 48.2389C29.0378 48.6276 29.2036 48.994 29.4399 49.3138C29.6763 49.6337 29.9779 49.8997 30.3247 50.0942C30.6766 50.2942 31.066 50.4195 31.4685 50.4621C31.871 50.5047 32.278 50.4637 32.664 50.3419L36.9207 48.9911C37.3126 48.8758 37.6476 48.619 37.861 48.2707C38.0743 47.9224 38.1507 47.5072 38.0753 47.1057L37.9626 46.549L38.3953 46.446C39.3024 47.2595 40.5697 48.0124 42.3222 48.5686Z" fill="white"/>
<path d="M41.1987 16.4611L41.2601 19.6258C40.9654 19.7105 40.7054 19.8872 40.5183 20.1301C40.2606 19.1618 37.6526 17.7079 37.6526 17.7079C36.5975 16.9048 35.3095 16.4671 33.9835 16.4611H27.2838C25.7477 16.4611 24.2431 15.9146 22.6455 14.3996C22.5255 16.3618 21.7062 18.2159 20.3364 19.6258C20.3364 19.6258 19.4194 20.6566 17.4194 20.6666C17.3529 20.4185 17.2228 20.1921 17.0421 20.0095C16.8613 19.827 16.6361 19.6948 16.3887 19.6258L16.4611 16.4611C16.4611 10.019 21.182 5.12305 28.8299 5.12305C36.4778 5.12305 41.1987 10.019 41.1987 16.4611Z" fill="#FF87B3"/>
<path d="M40.2608 30.8602L40.1682 30.8914C39.6327 33.5508 38.1479 36.2101 36.0452 38.158C34.0764 39.9931 31.572 41.1987 28.8301 41.1987C26.0882 41.1987 23.5838 39.9929 21.615 38.158C19.5123 36.2104 18.0275 33.5511 17.4921 30.8914L17.3994 30.8602C17.4607 30.7061 17.4921 30.5418 17.4921 30.376V21.0994C17.4953 20.9519 17.4707 20.8051 17.4196 20.6667C19.4196 20.6566 20.3366 19.6259 20.3366 19.6259C21.7065 18.2159 22.5257 16.3618 22.6457 14.3997C24.2434 15.9146 25.748 16.4611 27.284 16.4611H33.9838C35.3098 16.4673 36.5977 16.9051 37.6528 17.7083C37.6528 17.7083 40.2608 19.1618 40.5185 20.1305C40.2873 20.3999 40.1627 20.7445 40.1682 21.0994V30.376C40.1681 30.5418 40.1996 30.7061 40.2608 30.8602Z" fill="white"/>
<path d="M38.0758 47.1054C38.1511 47.5068 38.0747 47.922 37.8614 48.2703C37.6481 48.6187 37.3131 48.8754 36.9212 48.9907L32.6644 50.3415C32.2784 50.4634 31.8714 50.5043 31.4689 50.4617C31.0664 50.4191 30.677 50.2939 30.3252 50.0939C29.9783 49.8993 29.6767 49.6333 29.4404 49.3135C29.204 48.9936 29.0383 48.6272 28.9541 48.2385L28.8816 47.8778C28.8048 47.4909 28.814 47.0919 28.9084 46.709C29.0029 46.326 29.1804 45.9685 29.4283 45.6617C29.6805 45.3469 29.9963 45.0887 30.3549 44.904C30.7135 44.7193 31.1071 44.6122 31.5099 44.5896L35.973 44.2907C36.2612 44.2716 36.5493 44.3285 36.8085 44.4558C37.084 44.9794 37.4271 45.4646 37.8291 45.8988L37.963 46.5489L38.0758 47.1054Z" fill="#FF87B3"/>
<path d="M17.492 21.0995V30.3761C17.4921 30.5419 17.4607 30.7062 17.3994 30.8603C17.3042 31.1705 17.1112 31.4415 16.8492 31.6329C16.5872 31.8243 16.2704 31.9258 15.9459 31.9222H15.4306C14.8891 31.9223 14.3529 31.8158 13.8526 31.6087C13.3523 31.4015 12.8977 31.0978 12.5149 30.715C12.132 30.3321 11.8283 29.8775 11.6211 29.3772C11.414 28.8769 11.3075 28.3407 11.3076 27.7993V23.6763C11.3068 22.9606 11.4928 22.257 11.847 21.6351C12.2013 21.0132 12.7118 20.4945 13.3278 20.1302C13.9653 19.7552 14.691 19.5562 15.4306 19.5534H15.9459C16.0967 19.551 16.2467 19.5755 16.3889 19.6259C16.6363 19.6949 16.8615 19.8271 17.0423 20.0096C17.223 20.1921 17.3531 20.4186 17.4196 20.6667C17.4707 20.8052 17.4953 20.952 17.492 21.0995Z" fill="#FF87B3"/>
<path d="M44.3323 20.13C44.9484 20.4943 45.4588 21.013 45.8131 21.6349C46.1674 22.2568 46.3533 22.9603 46.3525 23.6761V27.799C46.3535 28.7129 46.05 29.6012 45.4901 30.3235C44.9302 31.0458 44.1457 31.5611 43.2603 31.7881C42.9246 31.88 42.5777 31.925 42.2296 31.9219H41.7142C41.3898 31.9256 41.0729 31.8241 40.8109 31.6327C40.549 31.4413 40.356 31.1702 40.2608 30.86C40.1995 30.706 40.1681 30.5416 40.1681 30.3758V21.0992C40.1626 20.7442 40.2872 20.3994 40.5185 20.13C40.7056 19.887 40.9656 19.7103 41.2603 19.6257C41.4063 19.5753 41.5599 19.5508 41.7142 19.5531H42.2296C42.9692 19.5559 43.6948 19.755 44.3323 20.13V20.13Z" stroke="#303E58" stroke-width="1.5461" stroke-linecap="round" stroke-linejoin="round"/>
<path d="M13.3278 20.13C12.7118 20.4943 12.2013 21.013 11.847 21.6349C11.4928 22.2568 11.3068 22.9603 11.3076 23.6761V27.799C11.3075 28.3405 11.414 28.8767 11.6211 29.377C11.8283 29.8773 12.132 30.3318 12.5148 30.7147C12.8977 31.0976 13.3523 31.4013 13.8526 31.6084C14.3529 31.8156 14.8891 31.9221 15.4306 31.9219H15.9459C16.2704 31.9256 16.5872 31.8241 16.8492 31.6327C17.1112 31.4413 17.3042 31.1702 17.3994 30.86C17.4607 30.706 17.4921 30.5416 17.492 30.3758V21.0992C17.4953 20.9517 17.4707 20.8049 17.4196 20.6665C17.3531 20.4184 17.223 20.1919 17.0423 20.0094C16.8615 19.8269 16.6363 19.6946 16.3889 19.6257C16.2467 19.5753 16.0967 19.5507 15.9459 19.5531H15.4306C14.691 19.5559 13.9653 19.755 13.3278 20.13V20.13Z" stroke="#303E58" stroke-width="1.5461" stroke-linecap="round" stroke-linejoin="round"/>
<path d="M17.4917 30.8914C18.0272 33.5508 19.5119 36.2101 21.6146 38.158C23.5835 39.9931 26.0879 41.1987 28.8298 41.1987C31.5716 41.1987 34.0761 39.9928 36.0449 38.158C38.1476 36.2103 39.6324 33.551 40.1678 30.8914" stroke="#303E58" stroke-width="1.5461" stroke-linecap="round" stroke-linejoin="round"/>
<path d="M16.4614 16.4611C16.4614 10.019 21.1823 5.12305 28.8302 5.12305C36.4781 5.12305 41.199 10.019 41.199 16.4611" stroke="#303E58" stroke-width="1.5461" stroke-linecap="round" stroke-linejoin="round"/>
<path d="M13.3276 20.13C13.3276 5.57685 18.5225 1 28.8299 1C39.1372 1 44.3321 5.57685 44.3321 20.13" stroke="#303E58" stroke-width="1.5461" stroke-linecap="round" stroke-linejoin="round"/>
<path d="M20.3364 19.6256C21.7063 18.2157 22.5255 16.3615 22.6455 14.3994C24.2432 15.9143 25.7478 16.4609 27.2838 16.4609H33.9836C35.3096 16.467 36.5976 16.9048 37.6526 17.7081" stroke="#303E58" stroke-width="1.5461" stroke-linecap="round" stroke-linejoin="round"/>
<path d="M1 62.844C1 57.5873 0.979901 52.5367 9.24587 50.5367C10.4931 50.2275 11.9153 49.836 13.3276 49.3418C17.4817 47.8988 21.6147 45.5893 21.6147 42.2297" stroke="#303E58" stroke-width="1.5461" stroke-linecap="round" stroke-linejoin="round"/>
<path d="M42.3218 48.5684C42.9821 48.8563 43.6617 49.114 44.3317 49.3414C45.6706 49.8105 47.033 50.2093 48.4134 50.5363C56.6905 52.5363 56.6593 57.5873 56.6593 62.8436" stroke="#303E58" stroke-width="1.5461" stroke-linecap="round" stroke-linejoin="round"/>
<path d="M36.0454 38.158V41.1986" stroke="#303E58" stroke-width="1.5461" stroke-linecap="round" stroke-linejoin="round"/>
<path d="M37.963 46.5484L38.0758 47.1051C38.1511 47.5066 38.0747 47.9217 37.8614 48.2701C37.6481 48.6184 37.3131 48.8752 36.9212 48.9905L32.6644 50.3413C32.2784 50.4631 31.8714 50.5041 31.4689 50.4615C31.0664 50.4189 30.677 50.2936 30.3252 50.0936C29.9783 49.8991 29.6767 49.6331 29.4404 49.3132C29.204 48.9934 29.0383 48.627 28.9541 48.2383L28.8816 47.8776C28.8048 47.4907 28.814 47.0917 28.9084 46.7087C29.0029 46.3258 29.1804 45.9682 29.4283 45.6615C29.6805 45.3466 29.9963 45.0885 30.3549 44.9038C30.7135 44.7191 31.1071 44.612 31.5099 44.5894L35.973 44.2905C36.2612 44.2714 36.5493 44.3283 36.8085 44.4555C37.0544 44.556 37.2716 44.7158 37.4406 44.9208C37.6096 45.1258 37.7252 45.3696 37.7768 45.6302L37.8291 45.898L37.963 46.5484Z" stroke="#303E58" stroke-width="1.5461" stroke-linecap="round" stroke-linejoin="round"/>
<path d="M43.26 31.7881V42.8685C43.2588 43.5662 43.0219 44.2431 42.5879 44.7894C42.1538 45.3356 41.5479 45.7193 40.8685 45.8781L38.3947 46.445L37.9619 46.5481" stroke="#303E58" stroke-width="1.5461" stroke-linecap="round" stroke-linejoin="round"/>
<path d="M44.3321 49.3413C40.9209 54.598 35.0868 57.6903 28.8299 57.6903C22.5729 57.6903 16.7388 54.598 13.3276 49.3413" stroke="#303E58" stroke-width="1.5461" stroke-linecap="round" stroke-linejoin="round"/>
</svg>
