<svg width="21" height="13" viewBox="0 0 21 13" fill="none" xmlns="http://www.w3.org/2000/svg">
<path fill-rule="evenodd" clip-rule="evenodd" d="M0.4375 6.49993C0.4375 6.30931 0.513225 6.12649 0.648017 5.9917C0.782809 5.85691 0.965626 5.78118 1.15625 5.78118H18.1087L13.5849 1.25881C13.4499 1.12384 13.3741 0.940796 13.3741 0.749931C13.3741 0.559066 13.4499 0.376018 13.5849 0.241056C13.7198 0.106094 13.9029 0.0302734 14.0937 0.0302734C14.2846 0.0302734 14.4677 0.106094 14.6026 0.241056L20.3526 5.99106C20.4196 6.05782 20.4727 6.13714 20.5089 6.22446C20.5451 6.31178 20.5638 6.40539 20.5638 6.49993C20.5638 6.59447 20.5451 6.68808 20.5089 6.7754C20.4727 6.86272 20.4196 6.94204 20.3526 7.00881L14.6026 12.7588C14.4677 12.8938 14.2846 12.9696 14.0937 12.9696C13.9029 12.9696 13.7198 12.8938 13.5849 12.7588C13.4499 12.6238 13.3741 12.4408 13.3741 12.2499C13.3741 12.0591 13.4499 11.876 13.5849 11.7411L18.1087 7.21868H1.15625C0.965626 7.21868 0.782809 7.14296 0.648017 7.00816C0.513225 6.87337 0.4375 6.69056 0.4375 6.49993Z" fill="white"/>
</svg>
