<svg width="31" height="33" viewBox="0 0 31 33" fill="none" xmlns="http://www.w3.org/2000/svg">
<path d="M15.7031 1V32.0163" stroke="#030504" stroke-width="0.939424" stroke-linecap="round" stroke-linejoin="round"/>
<path d="M10.7263 2.37439L15.7031 6.70561" stroke="#030504" stroke-width="0.939424" stroke-linecap="round" stroke-linejoin="round"/>
<path d="M20.6799 2.37439L15.7031 6.70561" stroke="#030504" stroke-width="0.939424" stroke-linecap="round" stroke-linejoin="round"/>
<path d="M10.7263 29.7089L15.7031 25.3777" stroke="#030504" stroke-width="0.939424" stroke-linecap="round" stroke-linejoin="round"/>
<path d="M20.6799 29.7089L15.7031 25.3777" stroke="#030504" stroke-width="0.939424" stroke-linecap="round" stroke-linejoin="round"/>
<path d="M2.34351 8.63278L29.0628 24.3836" stroke="#030504" stroke-width="0.939424" stroke-linecap="round" stroke-linejoin="round"/>
<path d="M1 13.618L7.25851 11.5302" stroke="#030504" stroke-width="0.939424" stroke-linecap="round" stroke-linejoin="round"/>
<path d="M6.05469 5.04343L7.25854 11.5302" stroke="#030504" stroke-width="0.939424" stroke-linecap="round" stroke-linejoin="round"/>
<path d="M24.5476 27.4992L23.3438 21.0124" stroke="#030504" stroke-width="0.939424" stroke-linecap="round" stroke-linejoin="round"/>
<path d="M29.6023 18.9245L23.3438 21.0123" stroke="#030504" stroke-width="0.939424" stroke-linecap="round" stroke-linejoin="round"/>
<path d="M29.0681 8.6418L2.33813 24.3746" stroke="#030504" stroke-width="0.939424" stroke-linecap="round" stroke-linejoin="round"/>
<path d="M25.3594 5.04993L24.1511 11.5359" stroke="#030504" stroke-width="0.939424" stroke-linecap="round" stroke-linejoin="round"/>
<path d="M30.4083 13.6279L24.1511 11.5359" stroke="#030504" stroke-width="0.939424" stroke-linecap="round" stroke-linejoin="round"/>
<path d="M1.80225 18.9152L8.05937 21.0072" stroke="#030504" stroke-width="0.939424" stroke-linecap="round" stroke-linejoin="round"/>
<path d="M6.85107 27.4932L8.05932 21.0072" stroke="#030504" stroke-width="0.939424" stroke-linecap="round" stroke-linejoin="round"/>
</svg>
