<svg width="33" height="35" viewBox="0 0 33 35" fill="none" xmlns="http://www.w3.org/2000/svg">
<path d="M15.7986 8.15223C8.74943 8.15223 5.11429 6.8733 5.11429 6.32752C5.11429 6.25635 5.35947 5.91209 6.55974 5.52982C6.67388 5.4928 6.7687 5.41208 6.82349 5.30534C6.87829 5.19859 6.88859 5.0745 6.85214 4.96018C6.8157 4.84586 6.73546 4.75061 6.62899 4.69527C6.52252 4.63994 6.39848 4.62902 6.28398 4.6649C4.94376 5.09184 4.2655 5.60957 4.21149 6.24491C3.92527 7.31832 3.358 8.29598 2.56814 9.07716C2.2456 9.39527 1.87893 10.0708 2.19058 10.627C3.40835 12.8074 9.38566 14.5153 15.7986 14.5153C22.2115 14.5153 28.1886 12.8074 29.4066 10.627C29.718 10.0697 29.3574 9.39174 29.0388 9.07205C28.556 8.58695 27.6992 7.57301 27.3801 6.22815C27.3264 5.70157 26.8514 5.25978 25.921 4.88248C25.8655 4.85926 25.8061 4.84727 25.746 4.8472C25.6859 4.84712 25.6264 4.85897 25.571 4.88205C25.5155 4.90512 25.4652 4.93896 25.4229 4.98162C25.3806 5.02429 25.3472 5.07494 25.3246 5.1306C25.302 5.18627 25.2907 5.24586 25.2913 5.30593C25.2919 5.366 25.3045 5.42536 25.3282 5.48055C25.3519 5.53575 25.3863 5.58569 25.4295 5.62748C25.4726 5.66928 25.5236 5.70211 25.5795 5.72405C26.3295 6.028 26.4827 6.27739 26.4827 6.32752C26.4827 6.8733 22.8476 8.15223 15.7986 8.15223ZM26.7748 7.30271C27.2321 8.42799 27.952 9.26764 28.3957 9.71298C28.5603 9.87813 28.6362 10.1222 28.614 10.1841C27.6906 11.8372 22.3208 13.6073 15.7988 13.6073C9.27669 13.6073 3.90693 11.8372 2.98467 10.1867C2.96362 10.1238 3.04235 9.88501 3.20594 9.7236C3.90179 9.03315 4.45082 8.20911 4.82001 7.30101C6.69968 8.66684 12.4749 9.06033 15.7988 9.06033C19.1211 9.06033 24.8929 8.66711 26.7748 7.30277V7.30271Z" fill="black"/>
<path d="M30.6367 28.8797C30.3439 28.7151 30.1024 28.5964 29.9301 28.5177C29.8705 25.4078 28.9777 16.5542 28.9396 16.1801C28.8842 15.3817 28.6144 14.4531 28.1379 13.4199C28.0867 13.3118 27.9949 13.2282 27.8825 13.1874C27.77 13.1466 27.6459 13.1518 27.5373 13.2019C27.4286 13.252 27.3442 13.343 27.3022 13.4551C27.2603 13.5671 27.2642 13.6912 27.3133 13.8004C27.7376 14.7198 27.9866 15.5646 28.0352 16.2572C28.0451 16.3552 29.0255 26.0751 29.0255 28.8188C29.0256 28.9114 29.0541 29.0017 29.1069 29.0777C29.1597 29.1537 29.2345 29.2118 29.3212 29.2442C29.6208 29.3664 29.9116 29.5091 30.1916 29.6712C30.6359 29.9213 31.1548 30.3863 31.1548 30.875V31.7535H25.6588C25.6076 31.7535 25.5568 31.7622 25.5085 31.7793C25.4633 31.795 20.9479 33.3619 16.0356 33.3125C11.1184 33.2677 6.94167 31.795 6.90026 31.7802C6.85117 31.7626 6.79943 31.7536 6.74729 31.7535H0.907835V30.875C0.907835 30.4097 1.06393 30.0485 1.83923 29.6879L2.82952 29.2311C2.90525 29.1962 2.96992 29.1412 3.01641 29.0719C3.0629 29.0027 3.08943 28.922 3.09309 28.8387C3.09684 28.7527 3.47195 20.2086 3.58922 17.3038C3.67524 15.1731 4.64764 13.9035 4.6565 13.8922C4.73123 13.7977 4.76538 13.6775 4.75145 13.5579C4.73752 13.4383 4.67665 13.3291 4.58222 13.2543C4.48779 13.1796 4.36754 13.1454 4.24792 13.1594C4.1283 13.1733 4.01913 13.2342 3.94439 13.3286C3.89672 13.3885 2.7805 14.8253 2.68209 17.267C2.5768 19.8734 2.26371 27.025 2.19812 28.5224L1.45742 28.8638C0.463102 29.3264 0 29.9656 0 30.875V32.2074C0 32.3278 0.0478318 32.4433 0.132983 32.5284C0.218134 32.6136 0.333629 32.6614 0.454051 32.6614H6.67034C7.28267 32.8722 11.2598 34.1769 16.0273 34.2203C16.1018 34.221 16.1761 34.2214 16.2501 34.2214C20.948 34.2214 25.1101 32.873 25.7348 32.6614H31.6091C31.7295 32.6614 31.845 32.6136 31.9301 32.5284C32.0152 32.4433 32.0631 32.3278 32.0631 32.2074V30.875C32.0626 29.7685 30.9712 29.0682 30.6367 28.8797Z" fill="black"/>
<path d="M17.8893 1.58145C17.5193 1.53868 17.1996 1.50211 16.993 1.43537C16.8112 1.35633 16.6348 1.26517 16.4652 1.16248C15.6897 0.727297 14.3941 -6.10352e-05 12.8547 -6.10352e-05H12.8378C11.3835 0.0052511 9.95868 2.23505 8.62384 4.51845C8.43471 4.84194 8.27134 5.12145 8.1461 5.31698C8.1139 5.36717 8.09191 5.42321 8.08137 5.4819C8.07083 5.54059 8.07195 5.60079 8.08468 5.65904C8.0974 5.7173 8.12147 5.77249 8.15552 5.82144C8.18957 5.87039 8.23293 5.91215 8.28312 5.94435C8.33331 5.97654 8.38935 5.99854 8.44804 6.00908C8.50673 6.01961 8.56693 6.01849 8.62519 6.00577C8.68344 5.99304 8.73863 5.96897 8.78758 5.93492C8.83654 5.90087 8.87829 5.85751 8.91049 5.80732C9.04595 5.5962 9.21356 5.30915 9.40765 4.97707C10.1789 3.65755 11.7837 0.912052 12.8408 0.908306H12.8544C14.156 0.908306 15.2773 1.53766 16.0202 1.95446C16.3159 2.1205 16.5297 2.2405 16.7139 2.29989C17.006 2.39408 17.367 2.43609 17.7849 2.48377C19.2141 2.64824 21.374 2.89675 23.0847 5.58836C23.1493 5.68996 23.2516 5.76174 23.3692 5.78789C23.4867 5.81404 23.6098 5.79243 23.7114 5.72781C23.813 5.66319 23.8848 5.56086 23.911 5.44332C23.9371 5.32579 23.9155 5.20269 23.8509 5.10109C21.9082 2.04416 19.3924 1.75437 17.8893 1.58145Z" fill="black"/>
<path d="M14.8313 28.5188C15.5569 28.5188 16.5046 28.1331 17.0115 27.6266L18.9951 25.6427C19.058 25.5799 19.101 25.5 19.1189 25.4129C19.1367 25.3259 19.1287 25.2355 19.0956 25.153C19.0626 25.0705 19.0061 24.9995 18.9331 24.9488C18.8601 24.8981 18.7738 24.87 18.685 24.8679L15.0896 24.781L15.0022 21.1851C15.0001 21.0962 14.9719 21.01 14.9212 20.937C14.8705 20.8641 14.7996 20.8076 14.7171 20.7746C14.6346 20.7416 14.5442 20.7335 14.4571 20.7514C14.3701 20.7692 14.2902 20.8123 14.2274 20.8751L12.2435 22.8588C11.7251 23.3775 11.3339 24.3563 11.3527 25.0864L11.4181 27.8106L9.76741 29.4609C9.68221 29.546 9.63432 29.6615 9.63428 29.782C9.63423 29.9024 9.68204 30.018 9.76718 30.1032C9.85231 30.1884 9.9678 30.2362 10.0882 30.2363C10.2087 30.2363 10.3242 30.1885 10.4094 30.1034L12.0601 28.4527L14.7832 28.5183C14.7992 28.5186 14.8151 28.5188 14.8313 28.5188ZM12.3202 27.5506L12.2603 25.0639C12.2479 24.5773 12.5401 23.8469 12.8857 23.501L14.1204 22.2666L14.1877 25.0415L13.3528 25.876C13.3107 25.9181 13.2772 25.9682 13.2544 26.0232C13.2316 26.0783 13.2198 26.1374 13.2198 26.197C13.2198 26.2566 13.2316 26.3156 13.2544 26.3707C13.2772 26.4258 13.3106 26.4758 13.3528 26.518C13.3949 26.5602 13.445 26.5936 13.5001 26.6164C13.5552 26.6392 13.6142 26.651 13.6738 26.651C13.7334 26.651 13.7925 26.6392 13.8475 26.6164C13.9026 26.5936 13.9527 26.5602 13.9948 26.518L14.8303 25.6829L17.6038 25.7501L16.3696 26.9845C16.0307 27.323 15.3212 27.611 14.834 27.611C14.8243 27.6101 14.8146 27.6101 14.8049 27.611L12.3202 27.5506Z" fill="black"/>
<path d="M19.509 24.4873C19.5512 24.5295 19.6012 24.5629 19.6563 24.5858C19.7114 24.6086 19.7704 24.6203 19.83 24.6203C19.8896 24.6203 19.9487 24.6086 20.0038 24.5858C20.0588 24.5629 20.1089 24.5295 20.151 24.4873L22.9433 21.6946C23.0277 21.6093 23.0748 21.4941 23.0745 21.3741C23.0741 21.2542 23.0263 21.1392 22.9415 21.0544C22.8567 20.9696 22.7417 20.9218 22.6218 20.9214C22.5018 20.9211 22.3866 20.9683 22.3013 21.0526L21.2596 22.0943L18.4851 22.0273L22.1219 18.3901C22.2063 18.3048 22.2534 18.1896 22.2531 18.0696C22.2527 17.9496 22.2049 17.8347 22.1201 17.7498C22.0353 17.665 21.9203 17.6172 21.8004 17.6169C21.6804 17.6165 21.5652 17.6637 21.4799 17.7481L17.8431 21.3852L17.776 18.6103L18.8173 17.5692C18.9017 17.4839 18.9489 17.3686 18.9485 17.2487C18.9482 17.1287 18.9004 17.0137 18.8156 16.9289C18.7307 16.8441 18.6158 16.7963 18.4958 16.7959C18.3759 16.7956 18.2606 16.8428 18.1753 16.9271L15.3831 19.7194C15.3405 19.7615 15.3067 19.8115 15.2836 19.8667C15.2604 19.9219 15.2485 19.9811 15.2483 20.0409C15.2481 20.1008 15.2598 20.16 15.2826 20.2154C15.3054 20.2707 15.339 20.3209 15.3813 20.3632C15.4236 20.4055 15.4738 20.4391 15.5291 20.4619C15.5844 20.4847 15.6437 20.4964 15.7035 20.4962C15.7634 20.496 15.8226 20.484 15.8778 20.4609C15.9329 20.4378 15.983 20.404 16.0251 20.3614L16.8895 19.497L16.9566 22.272L16.1018 23.1269C16.0593 23.1689 16.0255 23.219 16.0023 23.2742C15.9792 23.3294 15.9672 23.3886 15.9671 23.4484C15.9669 23.5082 15.9785 23.5675 16.0014 23.6228C16.0242 23.6781 16.0577 23.7284 16.1 23.7707C16.1423 23.813 16.1926 23.8465 16.2479 23.8693C16.3032 23.8921 16.3625 23.9038 16.4223 23.9036C16.4821 23.9035 16.5413 23.8915 16.5965 23.8684C16.6517 23.8452 16.7018 23.8114 16.7438 23.7689L17.5986 22.914L20.3732 22.981L19.509 23.8454C19.4669 23.8875 19.4334 23.9375 19.4106 23.9926C19.3878 24.0477 19.376 24.1067 19.376 24.1663C19.376 24.226 19.3878 24.285 19.4106 24.3401C19.4334 24.3951 19.4669 24.4452 19.509 24.4873Z" fill="black"/>
<path d="M13.3216 3.73217V3.56546C13.3224 3.50537 13.3112 3.44572 13.2887 3.38999C13.2662 3.33426 13.2329 3.28355 13.1907 3.2408C13.1484 3.19804 13.0981 3.1641 13.0427 3.14093C12.9872 3.11777 12.9277 3.10583 12.8676 3.10583C12.8075 3.10583 12.748 3.11777 12.6926 3.14093C12.6371 3.1641 12.5868 3.19804 12.5446 3.2408C12.5024 3.28355 12.469 3.33426 12.4466 3.38999C12.4241 3.44572 12.4129 3.50537 12.4136 3.56546V3.73217C12.4129 3.79226 12.4241 3.85189 12.4466 3.90762C12.469 3.96335 12.5024 4.01406 12.5446 4.05682C12.5868 4.09957 12.6371 4.13351 12.6926 4.15668C12.748 4.17985 12.8075 4.19178 12.8676 4.19178C12.9277 4.19178 12.9872 4.17985 13.0427 4.15668C13.0981 4.13351 13.1484 4.09957 13.1907 4.05682C13.2329 4.01406 13.2662 3.96335 13.2887 3.90762C13.3112 3.85189 13.3224 3.79226 13.3216 3.73217Z" fill="black"/>
<path d="M15.5721 5.26427V5.09733C15.5729 5.03724 15.5617 4.97761 15.5392 4.92188C15.5167 4.86615 15.4834 4.81544 15.4411 4.77269C15.3989 4.72993 15.3486 4.69599 15.2931 4.67283C15.2377 4.64966 15.1782 4.63773 15.1181 4.63773C15.058 4.63773 14.9985 4.64966 14.9431 4.67283C14.8876 4.69599 14.8373 4.72993 14.7951 4.77269C14.7529 4.81544 14.7195 4.86615 14.697 4.92188C14.6745 4.97761 14.6634 5.03724 14.6641 5.09733V5.26427C14.6656 5.38371 14.714 5.49777 14.799 5.58172C14.884 5.66568 14.9987 5.71275 15.1181 5.71275C15.2376 5.71275 15.3522 5.66568 15.4372 5.58172C15.5222 5.49777 15.5707 5.38371 15.5721 5.26427Z" fill="black"/>
<path d="M20.1024 5.64561V5.47869C20.1024 5.35828 20.0545 5.24278 19.9694 5.15764C19.8842 5.0725 19.7688 5.02467 19.6484 5.02467C19.5279 5.02467 19.4124 5.0725 19.3273 5.15764C19.2422 5.24278 19.1943 5.35828 19.1943 5.47869V5.64561C19.1943 5.76602 19.2422 5.8815 19.3273 5.96664C19.4124 6.05179 19.5279 6.09963 19.6484 6.09963C19.7688 6.09963 19.8842 6.05179 19.9694 5.96664C20.0545 5.8815 20.1024 5.76602 20.1024 5.64561Z" fill="black"/>
</svg>
