<svg width="27" height="30" viewBox="0 0 27 30" fill="none" xmlns="http://www.w3.org/2000/svg">
<path d="M6.78156 29.8239L6.11865 29.0085C6.94347 28.3372 8.98949 26.7438 10.1607 26.4578L10.3521 26.4116L10.5266 26.5015C11.8372 27.1775 13.1162 27.4283 15.2453 27.4283C16.4314 27.4675 17.6131 27.2635 18.7175 26.8291C19.8219 26.3946 20.8257 25.7387 21.6672 24.9018C25.1184 21.4253 25.7314 15.3183 25.7592 11.6573C20.6321 11.6831 16.9012 12.4674 14.9509 13.9326L14.3201 13.0914C17.0999 11.0023 22.3863 10.5865 26.2849 10.606L26.8043 10.6086L26.808 11.128C26.8353 14.8667 26.2996 21.725 22.4105 25.643C21.4729 26.5796 20.3535 27.3144 19.1212 27.8022C17.889 28.2901 16.5699 28.5206 15.2453 28.4797C13.0605 28.4797 11.6311 28.2121 10.2354 27.5334C9.39585 27.8336 7.88026 28.9276 6.78156 29.8239Z" fill="black"/>
<path d="M6.48657 25.0258L5.53559 24.5769L6.68056 22.1534L7.02646 22.1655C7.13581 22.1693 7.24691 22.1713 7.35976 22.1713C12.081 22.1713 14.1938 16.8906 14.1938 11.6573C14.1938 5.57922 11.4602 3.02223 8.43218 1.23749C3.4696 4.62246 1.05139 8.37751 1.05139 12.7087C1.05139 17.7917 2.19373 20.6468 4.64664 21.6918L4.23501 22.6591C0.438957 21.0415 0 16.2051 0 12.7087C0 7.98744 2.73362 3.77188 8.11939 0.180315L8.39012 0L8.6719 0.161393C11.9228 2.01868 15.2452 4.83694 15.2452 11.6573C15.2452 18.575 12.0763 23.2227 7.35976 23.2227H7.3382L6.48657 25.0258Z" fill="black"/>
<path d="M3.69448 29.531C3.56062 29.5307 3.42805 29.5049 3.30389 29.4548L1.71313 28.8187C1.57685 28.7642 1.45349 28.6818 1.35098 28.5768C1.24847 28.4718 1.16908 28.3465 1.11793 28.2089C1.06678 28.0713 1.04499 27.9246 1.05397 27.7781C1.06296 27.6316 1.10251 27.4886 1.17009 27.3583C1.29888 27.1102 1.47131 26.7958 1.67686 26.4221C2.24408 25.3875 3.1015 23.8246 3.96311 21.9536C6.21678 17.0647 7.35964 12.5389 7.35964 8.50316H8.41104C8.41104 12.6919 7.23611 17.3654 4.91831 22.3958C4.04144 24.2983 3.17299 25.8811 2.59788 26.9283C2.39759 27.2963 2.22989 27.6017 2.10215 27.8446L3.69396 28.4796L5.78255 24.0501L6.73354 24.4991L4.65809 28.8923C4.55632 29.1407 4.3603 29.3386 4.11294 29.4427C3.98098 29.5005 3.83855 29.5306 3.69448 29.531Z" fill="black"/>
<path d="M5.46727 26.8626L5.06616 25.8911C5.7911 25.5915 6.5623 25.2903 7.36398 24.977C12.0269 23.1549 17.8301 20.8881 21.0279 16.2309L21.8942 16.8255C18.5151 21.7513 12.5447 24.0843 7.74827 25.9579C6.95289 26.2665 6.18747 26.5651 5.46727 26.8626Z" fill="black"/>
<path d="M17.5055 21.1677L16.8411 20.3534C18.6731 18.8593 18.9249 16.3023 18.9249 13.7601H19.9763C19.9763 15.5106 19.9763 19.1537 17.5055 21.1677Z" fill="black"/>
<path d="M18.9249 23.2226H15.7708V24.274H18.9249V23.2226Z" fill="black"/>
<path d="M9.46238 24.9354H8.41098C8.38305 23.9478 8.58629 22.9672 9.00449 22.072L9.91395 22.5977C9.58802 23.3326 9.4336 24.132 9.46238 24.9354Z" fill="black"/>
<path d="M6.51106 18.4115H5.45967C5.45967 16.0459 4.59595 14.054 3.02832 12.8002L3.68491 11.9791C5.50751 13.4363 6.51106 15.7205 6.51106 18.4115Z" fill="black"/>
<path d="M11.5279 9.93412L10.8818 9.10457C11.6147 8.53419 12.133 8.20458 12.1546 8.19038L12.7176 9.07881C12.7128 9.08144 12.2166 9.39686 11.5279 9.93412Z" fill="black"/>
<path d="M7.77114 14.0167L6.85327 13.5036C7.55061 12.3181 8.42554 11.2466 9.44759 10.3263L10.1652 11.0943C9.22297 11.9408 8.41565 12.9263 7.77114 14.0167Z" fill="black"/>
<path d="M21.028 2.19478H19.9766V4.82326H21.028V2.19478Z" fill="black"/>
<path d="M21.028 6.92606H19.9766V9.55454H21.028V6.92606Z" fill="black"/>
<path d="M24.182 5.349H21.5535V6.40039H24.182V5.349Z" fill="black"/>
<path d="M19.4508 5.349H16.8223V6.40039H19.4508V5.349Z" fill="black"/>
</svg>
