<svg width="36" height="36" viewBox="0 0 36 36" fill="none" xmlns="http://www.w3.org/2000/svg">
<path d="M31.4746 3.45067V1.25372C31.4746 1.1581 31.4366 1.0664 31.369 0.998784C31.3014 0.931172 31.2097 0.893188 31.1141 0.893188H4.47257C4.37695 0.893188 4.28525 0.931172 4.21763 0.998784C4.15002 1.0664 4.11204 1.1581 4.11204 1.25372V3.45067L0.285654 12.1305C0.263428 12.1772 0.251676 12.2282 0.251221 12.2799C0.250977 12.8808 0.394969 13.4729 0.671099 14.0066C0.947229 14.5403 1.34743 14.9999 1.83806 15.3468V34.7594C1.83809 34.855 1.87609 34.9466 1.9437 35.0143C2.0113 35.0819 2.10298 35.1198 2.19859 35.1199H8.71462C8.72122 35.1199 8.72666 35.1236 8.73326 35.1236H26.8541C26.8607 35.1236 26.8662 35.1203 26.8728 35.1199H33.3888C33.4362 35.1199 33.4831 35.1106 33.5268 35.0924C33.5705 35.0743 33.6103 35.0478 33.6438 35.0143C33.6772 34.9808 33.7038 34.9411 33.7219 34.8973C33.74 34.8536 33.7494 34.8067 33.7494 34.7594V15.3469C34.2399 14.9999 34.64 14.5403 34.9161 14.0066C35.1922 13.4729 35.3363 12.8808 35.3362 12.2799C35.3357 12.2282 35.324 12.1772 35.3018 12.1305L31.4746 3.45067ZM13.9514 12.6419C13.8632 13.3857 13.5052 14.0713 12.9452 14.5688C12.3852 15.0662 11.6622 15.341 10.9132 15.341C10.1642 15.341 9.44116 15.0662 8.88119 14.5688C8.32123 14.0713 7.96321 13.3857 7.87499 12.6419H13.9514ZM20.8316 12.6419C20.7435 13.3857 20.3856 14.0714 19.8256 14.569C19.2657 15.0665 18.5426 15.3413 17.7936 15.3413C17.0445 15.3413 16.3215 15.0665 15.7615 14.569C15.2016 14.0714 14.8437 13.3857 14.7556 12.6419H20.8316ZM27.7122 12.6419C27.6239 13.3857 27.2659 14.0713 26.706 14.5688C26.146 15.0662 25.423 15.341 24.674 15.341C23.9249 15.341 23.2019 15.0662 22.642 14.5688C22.082 14.0713 21.724 13.3857 21.6358 12.6419H27.7122ZM28.1394 11.9189H1.16697L4.71917 3.86272H30.8688L34.4202 11.9186L28.1394 11.9189ZM4.83361 1.61411H30.7535V3.14166H4.83361V1.61411ZM0.993765 12.6422H7.05102C7.04571 12.6869 7.04481 12.7329 7.03807 12.7767C7.0237 12.8636 7.00493 12.9488 6.98357 13.0331C6.95719 13.1374 6.9253 13.2402 6.88804 13.3412C6.85826 13.4214 6.82616 13.5004 6.78991 13.5774C6.7442 13.6734 6.69352 13.767 6.63806 13.8577C6.59469 13.9294 6.55107 14.0001 6.50214 14.0682C6.43859 14.1542 6.37057 14.2369 6.29838 14.3158C6.24388 14.3768 6.19054 14.4385 6.13138 14.4949C6.05082 14.5692 5.96634 14.6391 5.8783 14.7044C5.81539 14.7526 5.75493 14.8036 5.68826 14.8468C5.59054 14.9075 5.48945 14.9627 5.38547 15.0119C5.31816 15.0455 5.25369 15.0841 5.18365 15.1129C5.06322 15.159 4.93999 15.1975 4.81471 15.2281C4.75232 15.2446 4.6929 15.2689 4.62895 15.2815C4.43346 15.321 4.23457 15.3412 4.03514 15.3417C3.45235 15.3446 2.88139 15.1772 2.39238 14.8602C2.00888 14.6179 1.6843 14.293 1.44234 13.9093C1.20037 13.5256 1.04712 13.0927 0.993765 12.6422ZM18.1541 18.1583H26.4935V34.3988H18.1541V18.1583ZM17.433 34.3993H9.09366V18.1583H17.433V34.3993ZM33.0282 34.3993H27.2145V17.7972C27.2145 17.7016 27.1766 17.6099 27.109 17.5422C27.0413 17.4746 26.9496 17.4366 26.854 17.4366H8.73314C8.63751 17.4366 8.5458 17.4746 8.4782 17.5422C8.41059 17.6099 8.37261 17.7016 8.37261 17.7972V34.3988H2.55912V15.7643C2.59109 15.778 2.62656 15.7827 2.65892 15.7953C2.82687 15.8615 2.99947 15.9151 3.17531 15.9559C3.2359 15.97 3.29545 15.9842 3.35655 15.9947C3.58002 16.0374 3.80686 16.06 4.03437 16.0623C4.28241 16.0617 4.52979 16.0367 4.7729 15.9875C4.85432 15.9711 4.92928 15.9397 5.00876 15.9183C5.16262 15.8808 5.31395 15.8336 5.46185 15.777C5.55156 15.7401 5.63299 15.6896 5.7192 15.6461C5.84583 15.586 5.969 15.5189 6.08815 15.445C6.17371 15.3892 6.24983 15.3226 6.33035 15.2601C6.43725 15.1807 6.53992 15.0959 6.63793 15.0058C6.7134 14.9333 6.77917 14.8531 6.84855 14.7746C6.93653 14.6783 7.01949 14.5775 7.0971 14.4726C7.15885 14.3864 7.21102 14.295 7.26539 14.2035C7.33348 14.0921 7.39571 13.9773 7.45181 13.8595C7.45724 13.8478 7.46475 13.8376 7.47006 13.8258C7.76592 14.4913 8.24831 15.0567 8.85885 15.4536C9.46938 15.8506 10.1819 16.0621 10.9101 16.0625C11.6384 16.0629 12.3511 15.8522 12.9621 15.4559C13.5731 15.0597 14.0561 14.4948 14.3527 13.8297C14.6493 14.4943 15.132 15.0587 15.7424 15.4548C16.3529 15.8509 17.0651 16.0616 17.7928 16.0616C18.5205 16.0616 19.2327 15.8509 19.8431 15.4548C20.4536 15.0587 20.9363 14.4943 21.2329 13.8297C21.5295 14.4948 22.0125 15.0597 22.6235 15.4559C23.2345 15.8522 23.9472 16.0629 24.6755 16.0625C25.4037 16.0621 26.1162 15.8506 26.7268 15.4536C27.3373 15.0567 27.8197 14.4913 28.1155 13.8258C28.1208 13.8376 28.1285 13.8478 28.1338 13.8595C28.1899 13.9773 28.2521 14.0921 28.3202 14.2035C28.3747 14.295 28.4269 14.3864 28.4885 14.4726C28.5661 14.5775 28.6491 14.6783 28.737 14.7746C28.8064 14.8531 28.8722 14.9333 28.9478 15.0058C29.0457 15.0959 29.1484 15.1808 29.2552 15.2601C29.3358 15.3226 29.4119 15.3895 29.4975 15.445C29.6166 15.5189 29.7398 15.586 29.8664 15.6461C29.9526 15.6896 30.0347 15.7401 30.1238 15.777C30.2717 15.8336 30.423 15.8808 30.5768 15.9183C30.6563 15.9397 30.7313 15.9711 30.8127 15.9875C31.0556 16.0366 31.3028 16.0617 31.5506 16.0623C31.7784 16.06 32.0055 16.0374 32.2293 15.9946C32.2898 15.9836 32.3485 15.9697 32.4081 15.9557C32.5869 15.9145 32.7625 15.86 32.9331 15.7925C32.9633 15.7805 32.9963 15.7763 33.0262 15.7635L33.0282 34.3993ZM33.1915 14.8634C32.7034 15.1789 32.1338 15.3454 31.5525 15.3424C31.3531 15.3418 31.1542 15.3217 30.9587 15.2822C30.8948 15.2692 30.8356 15.2453 30.7732 15.2287C30.6478 15.1982 30.5244 15.1597 30.4039 15.1135C30.334 15.0848 30.2698 15.0463 30.2026 15.0128C30.0985 14.9634 29.9973 14.9082 29.8994 14.8475C29.8329 14.8042 29.7723 14.7532 29.7094 14.7051C29.6213 14.6398 29.5368 14.5698 29.4563 14.4955C29.3971 14.4393 29.3439 14.3774 29.2894 14.3166C29.2171 14.2376 29.149 14.1548 29.0853 14.0687C29.0366 14.0012 28.9931 13.9303 28.95 13.8588C28.8943 13.7678 28.8434 13.6739 28.7975 13.5775C28.7615 13.5009 28.7295 13.4222 28.6999 13.3422C28.6625 13.2411 28.6305 13.1381 28.6041 13.0336C28.5827 12.9493 28.564 12.8643 28.5496 12.7774C28.5423 12.7334 28.5414 12.6876 28.5367 12.6429H34.5934C34.54 13.094 34.3864 13.5275 34.1438 13.9116C33.9013 14.2957 33.5759 14.6207 33.1915 14.8629V14.8634Z" fill="#B3B3B3"/>
<path d="M11.1552 25.5088C11.223 25.5762 11.3146 25.6141 11.4101 25.6141C11.5057 25.6141 11.5973 25.5762 11.665 25.5088L15.3715 21.8028C15.4369 21.7348 15.473 21.6439 15.4721 21.5495C15.4712 21.4552 15.4334 21.3649 15.3668 21.2981C15.3002 21.2313 15.2101 21.1933 15.1157 21.1921C15.0214 21.191 14.9304 21.2268 14.8621 21.292L11.1556 24.9981C11.0879 25.0658 11.0499 25.1577 11.0498 25.2534C11.0497 25.3491 11.0877 25.441 11.1552 25.5088Z" fill="#B3B3B3"/>
<path d="M10.6668 22.7841C10.7142 22.7843 10.761 22.7751 10.8048 22.757C10.8485 22.7389 10.8883 22.7124 10.9217 22.6789L13.0297 20.571C13.064 20.5377 13.0913 20.4979 13.11 20.4539C13.1288 20.41 13.1386 20.3627 13.139 20.3149C13.1393 20.2672 13.1302 20.2198 13.1121 20.1756C13.094 20.1313 13.0673 20.0911 13.0335 20.0573C12.9997 20.0235 12.9596 19.9967 12.9154 19.9785C12.8712 19.9604 12.8238 19.9511 12.7761 19.9514C12.7283 19.9517 12.681 19.9614 12.637 19.9801C12.593 19.9988 12.5532 20.026 12.5198 20.0602L10.4119 22.1681C10.3614 22.2185 10.3269 22.2828 10.3129 22.3528C10.2989 22.4228 10.306 22.4954 10.3333 22.5614C10.3606 22.6273 10.4069 22.6837 10.4662 22.7234C10.5256 22.763 10.5954 22.7842 10.6668 22.7841Z" fill="#B3B3B3"/>
<path d="M24.5218 21.2919C24.4883 21.2585 24.4486 21.2319 24.4048 21.2138C24.3611 21.1957 24.3142 21.1863 24.2669 21.1863C24.2195 21.1863 24.1727 21.1957 24.1289 21.2138C24.0852 21.2319 24.0454 21.2585 24.012 21.2919L20.3053 24.9981C20.2376 25.0657 20.1995 25.1574 20.1995 25.2531C20.1994 25.3488 20.2373 25.4406 20.305 25.5084C20.3726 25.5761 20.4643 25.6142 20.56 25.6142C20.6557 25.6143 20.7475 25.5764 20.8153 25.5088L24.5218 21.8028C24.5894 21.735 24.6274 21.6431 24.6274 21.5473C24.6274 21.4516 24.5894 21.3597 24.5218 21.2919Z" fill="#B3B3B3"/>
<path d="M22.18 20.0601C22.1465 20.0266 22.1067 20.0001 22.063 19.982C22.0193 19.9638 21.9724 19.9545 21.9251 19.9545C21.8777 19.9545 21.8308 19.9638 21.7871 19.982C21.7434 20.0001 21.7036 20.0266 21.6702 20.0601L19.5621 22.168C19.4958 22.2359 19.459 22.3272 19.4595 22.4221C19.46 22.5171 19.4979 22.608 19.565 22.6751C19.632 22.7423 19.7228 22.7804 19.8177 22.7811C19.9127 22.7818 20.004 22.745 20.0721 22.6788L22.18 20.5709C22.2476 20.5032 22.2856 20.4113 22.2856 20.3155C22.2856 20.2198 22.2476 20.1279 22.18 20.0601Z" fill="#B3B3B3"/>
</svg>
