<svg width="92" height="16" viewBox="0 0 92 16" fill="none" xmlns="http://www.w3.org/2000/svg">
<path d="M8.09655 12.5925L3.09263 15.734L4.53404 10.0041L0 6.2159L5.89483 5.81618L8.09655 0.333374L10.2983 5.81618L16.1931 6.2159L11.6592 10.0041L13.1006 15.734L8.09655 12.5925Z" fill="#910F3F"/>
<path d="M26.9453 12.5924L21.9415 15.7339L23.3829 10.0041L18.8489 6.21584L24.7437 5.81612L26.9453 0.333344L29.147 5.81615L35.0418 6.21587L30.5078 10.0041L31.9493 15.7339L26.9453 12.5924Z" fill="#910F3F"/>
<path d="M45.7941 12.5924L40.7901 15.7339L42.2316 10.004L37.6975 6.21584L43.5924 5.81612L45.7941 0.333344L47.9958 5.81615L53.8906 6.21587L49.3566 10.0041L50.798 15.7339L45.7941 12.5924Z" fill="#910F3F"/>
<path d="M64.643 12.5924L59.6393 15.7339L61.0807 10.004L56.5464 6.21584L62.4413 5.81612L64.643 0.333344L66.8448 5.81615L72.7394 6.21584L68.2055 10.0041L69.6468 15.7339L64.643 12.5924Z" fill="#910F3F"/>
<path d="M83.4916 12.5924L78.4878 15.7339L79.9289 10.0041L75.395 6.21587L81.2899 5.81615L83.4916 0.333344L85.6933 5.81615L91.5881 6.21587L87.0541 10.0041L88.4955 15.7339L83.4916 12.5924Z" fill="#910F3F"/>
</svg>
