<svg width="61" height="61" viewBox="0 0 61 61" fill="none" xmlns="http://www.w3.org/2000/svg">
<circle cx="30.5037" cy="30.5653" r="29.9627" fill="#910F3F"/>
<path d="M30.7232 17.5488C27.7334 17.5523 24.8671 18.7415 22.753 20.8556C20.6389 22.9696 19.4497 25.836 19.4463 28.8258C19.4463 33.4913 25.9098 42.2967 29.3509 46.6537C29.5144 46.8611 29.7229 47.0287 29.9606 47.144C30.1983 47.2593 30.459 47.3192 30.7232 47.3192C30.9874 47.3192 31.2481 47.2593 31.4858 47.144C31.7235 47.0287 31.932 46.8611 32.0956 46.6537C35.5366 42.2967 42.0001 33.4913 42.0001 28.8258C41.9967 25.836 40.8075 22.9696 38.6934 20.8556C36.5793 18.7415 33.713 17.5523 30.7232 17.5488ZM35.7487 29.2368C35.6703 30.1958 35.3191 31.1124 34.7365 31.8783C34.154 32.6442 33.3644 33.2274 32.4611 33.559C31.5579 33.8907 30.5785 33.9569 29.6388 33.75C28.6991 33.543 27.8382 33.0715 27.1578 32.3911C26.4774 31.7106 26.0059 30.8497 25.7989 29.91C25.592 28.9702 25.6583 27.9909 25.99 27.0876C26.3217 26.1844 26.9049 25.3949 27.6708 24.8123C28.4367 24.2298 29.3533 23.8786 30.3124 23.8002C31.0406 23.7441 31.7724 23.8463 32.4574 24.0997C33.1424 24.353 33.7645 24.7517 34.281 25.2681C34.7975 25.7846 35.196 26.4067 35.4494 27.0918C35.7027 27.7768 35.8049 28.5086 35.7487 29.2368Z" fill="white"/>
</svg>
