<svg width="39" height="38" viewBox="0 0 39 38" fill="none" xmlns="http://www.w3.org/2000/svg">
<path fill-rule="evenodd" clip-rule="evenodd" d="M19.6332 0.229858C9.22855 0.229858 0.793945 8.66446 0.793945 19.0691C0.793945 29.4737 9.22855 37.9083 19.6332 37.9083C30.0378 37.9083 38.4724 29.4737 38.4724 19.0691C38.4724 8.66446 30.0378 0.229858 19.6332 0.229858ZM15.4911 9.08233C16.5628 9.03356 16.9053 9.02163 19.6341 9.02163H19.6309C22.3606 9.02163 22.7018 9.03356 23.7735 9.08233C24.8432 9.13132 25.5737 9.30066 26.2143 9.54913C26.8757 9.80556 27.4346 10.1489 27.9935 10.7078C28.5524 11.2662 28.8957 11.8268 29.1532 12.4877C29.4002 13.1265 29.5698 13.8567 29.62 14.9263C29.6681 15.9981 29.6807 16.3405 29.6807 19.0693C29.6807 21.7981 29.6681 22.1397 29.62 23.2115C29.5698 24.2807 29.4002 25.0111 29.1532 25.6501C28.8957 26.3108 28.5524 26.8713 27.9935 27.4298C27.4353 27.9887 26.8755 28.3329 26.2149 28.5895C25.5756 28.838 24.8446 29.0073 23.775 29.0563C22.7032 29.1051 22.3618 29.117 19.6328 29.117C16.9042 29.117 16.562 29.1051 15.4902 29.0563C14.4208 29.0073 13.6904 28.838 13.0512 28.5895C12.3907 28.3329 11.8302 27.9887 11.2719 27.4298C10.7132 26.8713 10.3699 26.3108 10.113 25.6499C9.86479 25.0111 9.69544 24.2809 9.64625 23.2113C9.59768 22.1395 9.58554 21.7981 9.58554 19.0693C9.58554 16.3405 9.5981 15.9979 9.64604 14.9261C9.69418 13.8569 9.86374 13.1265 10.1128 12.4875C10.3703 11.8268 10.7136 11.2662 11.2725 10.7078C11.831 10.1491 12.3916 9.80577 13.0524 9.54913C13.6913 9.30066 14.4214 9.13132 15.4911 9.08233Z" fill="#910F3F"/>
<path fill-rule="evenodd" clip-rule="evenodd" d="M18.7331 10.8317C18.9081 10.8314 19.0964 10.8315 19.2996 10.8316L19.6345 10.8317C22.3172 10.8317 22.6352 10.8413 23.6946 10.8895C24.6742 10.9343 25.2059 11.098 25.5601 11.2355C26.029 11.4176 26.3633 11.6353 26.7147 11.987C27.0664 12.3386 27.2841 12.6736 27.4666 13.1425C27.6042 13.4962 27.7681 14.0279 27.8127 15.0076C27.8608 16.0668 27.8713 16.3849 27.8713 19.0664C27.8713 21.7479 27.8608 22.0661 27.8127 23.1253C27.7679 24.1049 27.6042 24.6366 27.4666 24.9904C27.2845 25.4593 27.0664 25.7931 26.7147 26.1446C26.3631 26.4963 26.0292 26.714 25.5601 26.8961C25.2063 27.0342 24.6742 27.1975 23.6946 27.2423C22.6354 27.2904 22.3172 27.3009 19.6345 27.3009C16.9515 27.3009 16.6336 27.2904 15.5744 27.2423C14.5947 27.1971 14.063 27.0334 13.7086 26.8959C13.2397 26.7137 12.9048 26.496 12.5532 26.1444C12.2015 25.7927 11.9838 25.4586 11.8013 24.9895C11.6637 24.6358 11.4998 24.1041 11.4552 23.1244C11.4071 22.0652 11.3975 21.7471 11.3975 19.0639C11.3975 16.3807 11.4071 16.0642 11.4552 15.0051C11.5 14.0254 11.6637 13.4937 11.8013 13.1395C11.9834 12.6706 12.2015 12.3357 12.5532 11.984C12.9048 11.6324 13.2397 11.4147 13.7086 11.2321C14.0628 11.094 14.5947 10.9307 15.5744 10.8857C16.5013 10.8438 16.8605 10.8313 18.7331 10.8292V10.8317ZM24.9974 12.4996C24.3317 12.4996 23.7916 13.039 23.7916 13.7049C23.7916 14.3706 24.3317 14.9106 24.9974 14.9106C25.663 14.9106 26.2031 14.3706 26.2031 13.7049C26.2031 13.0392 25.663 12.4992 24.9974 12.4992V12.4996ZM14.4744 19.0676C14.4744 16.2181 16.7847 13.9078 19.6341 13.9077C22.4837 13.9077 24.7934 16.2181 24.7934 19.0676C24.7934 21.9172 22.4839 24.2265 19.6343 24.2265C16.7848 24.2265 14.4744 21.9172 14.4744 19.0676Z" fill="#910F3F"/>
<path fill-rule="evenodd" clip-rule="evenodd" d="M19.6334 15.7196C21.483 15.7196 22.9826 17.219 22.9826 19.0688C22.9826 20.9184 21.483 22.4181 19.6334 22.4181C17.7836 22.4181 16.2842 20.9184 16.2842 19.0688C16.2842 17.219 17.7836 15.7196 19.6334 15.7196V15.7196Z" fill="#910F3F"/>
</svg>
