<svg width="60" height="60" viewBox="0 0 60 60" fill="none" xmlns="http://www.w3.org/2000/svg">
<circle cx="29.9627" cy="29.9627" r="29.9627" fill="#910F3F"/>
<path d="M30.1253 34.6772L26.2622 31.2958L15.2168 40.764C15.6356 41.1532 16.1863 41.3692 16.758 41.3686H43.4925C44.0622 41.3692 44.6109 41.1531 45.0271 40.764L33.9883 31.2958L30.1253 34.6772Z" fill="white"/>
<path d="M45.034 19.3582C44.6159 18.9679 44.0647 18.7517 43.4928 18.7536H16.7583C16.1872 18.753 15.6374 18.9709 15.2217 19.3626L30.1255 32.1364L45.034 19.3582Z" fill="white"/>
<path d="M14.25 20.7449V39.2755L25.029 30.1149L14.25 20.7449Z" fill="white"/>
<path d="M35.2207 30.115L45.9997 39.2756V20.7383L35.2207 30.115Z" fill="white"/>
</svg>
