<svg width="39" height="38" viewBox="0 0 39 38" fill="none" xmlns="http://www.w3.org/2000/svg">
<path fill-rule="evenodd" clip-rule="evenodd" d="M19.5404 0.229858C9.13578 0.229858 0.701172 8.66446 0.701172 19.0691C0.701172 29.4737 9.13578 37.9083 19.5404 37.9083C29.945 37.9083 38.3796 29.4737 38.3796 19.0691C38.3796 8.66446 29.945 0.229858 19.5404 0.229858ZM27.3922 12.5931C28.2569 12.8304 28.9378 13.5295 29.1689 14.4173C29.5889 16.0263 29.5889 19.3836 29.5889 19.3836C29.5889 19.3836 29.5889 22.7407 29.1689 24.3499C28.9378 25.2377 28.2569 25.9368 27.3922 26.1742C25.8252 26.6053 19.5413 26.6053 19.5413 26.6053C19.5413 26.6053 13.2573 26.6053 11.6902 26.1742C10.8256 25.9368 10.1446 25.2377 9.91352 24.3499C9.49369 22.7407 9.49369 19.3836 9.49369 19.3836C9.49369 19.3836 9.49369 16.0263 9.91352 14.4173C10.1446 13.5295 10.8256 12.8304 11.6902 12.5931C13.2573 12.1619 19.5413 12.1619 19.5413 12.1619C19.5413 12.1619 25.8252 12.1619 27.3922 12.5931Z" fill="#910F3F"/>
<path fill-rule="evenodd" clip-rule="evenodd" d="M17.6562 22.8364V16.5567L22.68 19.6967L17.6562 22.8364Z" fill="#910F3F"/>
</svg>
