<svg width="60" height="60" viewBox="0 0 60 60" fill="none" xmlns="http://www.w3.org/2000/svg">
<circle cx="29.9627" cy="29.9627" r="29.9627" fill="#910F3F"/>
<path d="M42.4109 36.9771L38.1361 34.6463C37.61 34.3612 36.9988 34.275 36.4144 34.4035C35.83 34.5321 35.3114 34.8667 34.9534 35.3463L33.2327 37.6762C31.4023 36.6451 29.4328 34.8037 27.8341 32.9402C26.2223 31.0607 24.9481 29.5535 24.2134 27.1355L27.0605 25.4659C27.5741 25.1725 27.9598 24.698 28.1422 24.1354C28.3246 23.5727 28.2907 22.9622 28.047 22.4232L26.0429 18.0639C25.9243 17.8152 25.7558 17.5936 25.548 17.4127C25.3402 17.2317 25.0974 17.0955 24.8347 17.0122C24.572 16.929 24.295 16.9007 24.0209 16.9289C23.7468 16.9572 23.4815 17.0415 23.2413 17.1765C21.1883 18.3069 18.1938 20.3071 17.7808 22.5361C17.5242 25.2232 17.8155 27.9345 18.6372 30.5057C19.4589 33.077 20.7937 35.4548 22.561 37.4951C26.1611 41.6859 31.2782 44.2751 36.7871 44.6934C39.2172 44.7528 41.6919 41.7796 43.0852 39.7675C43.2398 39.5447 43.3455 39.2917 43.3953 39.0251C43.4451 38.7586 43.4379 38.4845 43.3742 38.221C43.3105 37.9574 43.1917 37.7103 43.0257 37.4959C42.8597 37.2815 42.6502 37.1047 42.4109 36.9771Z" fill="white"/>
</svg>
