<svg width="16" height="18" viewBox="0 0 16 18" fill="none" xmlns="http://www.w3.org/2000/svg">
<path d="M9.66659 17.125C9.53409 17.125 9.40246 17.0825 9.29163 17L5.95829 14.5C5.80163 14.3817 5.70825 14.1967 5.70825 14V10.6667C5.70825 10.5 5.64328 10.3425 5.52494 10.2242L1.25747 5.95666C0.9033 5.60166 0.708252 5.13166 0.708252 4.63082V2.75C0.708252 1.71583 1.54992 0.875 2.58325 0.875H13.4166C14.4499 0.875 15.2916 1.71583 15.2916 2.75V4.63082C15.2916 5.13166 15.0965 5.60249 14.7424 5.95666L10.4749 10.2242C10.3566 10.3425 10.2916 10.4992 10.2916 10.6667V16.5C10.2916 16.7367 10.1582 16.9533 9.94572 17.0592C9.85739 17.1033 9.76159 17.125 9.66659 17.125ZM6.95825 13.6875L9.04159 15.25V10.6667C9.04159 10.1658 9.23663 9.695 9.5908 9.34083L13.8583 5.07333C13.9766 4.955 14.0416 4.79832 14.0416 4.63082V2.75C14.0416 2.405 13.7608 2.125 13.4166 2.125H2.58325C2.23909 2.125 1.95825 2.405 1.95825 2.75V4.63082C1.95825 4.79749 2.02323 4.955 2.14156 5.07333L6.40904 9.34083C6.7632 9.69583 6.95825 10.1658 6.95825 10.6667V13.6875V13.6875Z" fill="black"/>
</svg>
