<svg width="22" height="21" viewBox="0 0 22 21" fill="none" xmlns="http://www.w3.org/2000/svg">
<path d="M15.293 20.9901H6.43637C4.82795 20.9882 3.28594 20.3484 2.14861 19.2111C1.01128 18.0737 0.371506 16.5317 0.369629 14.9233V6.0667C0.371442 4.45826 1.0112 2.91621 2.14854 1.77888C3.28589 0.641544 4.82793 0.00180042 6.43637 0H15.293C16.9014 0.00181318 18.4434 0.641563 19.5808 1.7789C20.7181 2.91623 21.3579 4.45827 21.3597 6.0667V14.9233C21.3578 16.5317 20.718 18.0737 19.5807 19.2111C18.4434 20.3484 16.9014 20.9882 15.293 20.9901ZM6.43637 2.11171C5.3878 2.11289 4.38251 2.52995 3.64105 3.2714C2.8996 4.01285 2.48252 5.01813 2.48134 6.0667V14.9233C2.48251 15.9719 2.89958 16.9772 3.64104 17.7187C4.3825 18.4601 5.38779 18.8772 6.43637 18.8784H15.293C16.3416 18.8772 17.3468 18.4601 18.0883 17.7186C18.8297 16.9772 19.2468 15.9719 19.248 14.9233V6.0667C19.2468 5.01814 18.8297 4.01286 18.0883 3.27141C17.3468 2.52997 16.3415 2.1129 15.293 2.11171H6.43637Z" fill="white"/>
<path d="M10.8646 15.8074C9.81393 15.8074 8.78684 15.4959 7.91323 14.9121C7.03962 14.3284 6.35872 13.4987 5.95664 12.528C5.55455 11.5573 5.44934 10.4892 5.65432 9.4587C5.85929 8.4282 6.36524 7.48163 7.10819 6.73868C7.85113 5.99573 8.7977 5.48978 9.82819 5.28479C10.8587 5.07981 11.9268 5.18501 12.8975 5.58708C13.8682 5.98915 14.6979 6.67004 15.2817 7.54364C15.8654 8.41725 16.177 9.44434 16.177 10.495C16.1754 11.9035 15.6152 13.2538 14.6193 14.2497C13.6234 15.2456 12.2731 15.8058 10.8646 15.8074ZM10.8646 6.94721C10.1629 6.9472 9.47696 7.15527 8.89351 7.54512C8.31006 7.93496 7.85531 8.48906 7.58677 9.13735C7.31824 9.78564 7.24797 10.499 7.38487 11.1872C7.52176 11.8754 7.85967 12.5076 8.35585 13.0038C8.85203 13.5 9.4842 13.8379 10.1724 13.9748C10.8606 14.1117 11.574 14.0414 12.2223 13.7729C12.8706 13.5043 13.4247 13.0496 13.8145 12.4661C14.2044 11.8827 14.4124 11.1967 14.4124 10.495C14.4114 9.55441 14.0372 8.65263 13.3721 7.98751C12.707 7.3224 11.8052 6.94827 10.8646 6.94721Z" fill="white"/>
<path d="M16.7628 6.05852C17.3926 5.79251 17.6875 5.06632 17.4215 4.43652C17.1555 3.80672 16.4293 3.51181 15.7995 3.77781C15.1697 4.04382 14.8748 4.77001 15.1408 5.39981C15.4068 6.02961 16.133 6.32452 16.7628 6.05852Z" fill="white"/>
</svg>
