<svg width="21" height="17" viewBox="0 0 21 17" fill="none" xmlns="http://www.w3.org/2000/svg">
<path d="M10.4511 5.24303C5.23034 5.11084 1.69493 0.848344 1.69493 0.848344C1.69493 0.848344 -0.105897 4.26827 2.96711 6.47386C2.96711 6.47386 2.11663 6.5482 1.17057 6.003C1.17057 6.003 0.802814 9.1751 4.42097 10.1829C4.42097 10.1829 4.18139 10.4473 2.65318 10.3233C2.65318 10.3233 3.40096 13.1279 6.52332 13.2146C6.52332 13.2146 4.6027 15.2839 0.414551 15.0608C0.414551 15.0608 7.05612 19.5588 14.1009 14.6608C16.4917 12.9985 19.336 8.43191 18.9433 4.25172C18.9433 4.25172 20.232 3.42565 21.0002 2.07918C21.0002 2.07918 20.4464 2.30674 19.8718 2.47067C19.396 2.60643 18.9057 2.68294 18.7037 2.69047C18.7037 2.69047 20.2815 1.60017 20.4549 0.377489C20.4549 0.377489 18.7324 1.31413 17.8318 1.38225L17.8008 1.38423C17.1582 0.703864 16.3102 0.252964 15.3869 0.100637C14.4635 -0.0516897 13.5157 0.102957 12.6886 0.540881C11.8615 0.978805 11.2009 1.67585 10.8079 2.52518C10.4149 3.37452 10.3112 4.32928 10.5128 5.24317L10.4511 5.24303Z" fill="white"/>
</svg>
