<svg width="20" height="20" viewBox="0 0 20 20" fill="none" xmlns="http://www.w3.org/2000/svg">
<path d="M1.66663 5.00016C1.66663 4.55814 1.84222 4.13421 2.15478 3.82165C2.46734 3.50909 2.89127 3.3335 3.33329 3.3335H16.6666C17.1087 3.3335 17.5326 3.50909 17.8451 3.82165C18.1577 4.13421 18.3333 4.55814 18.3333 5.00016V15.0002C18.3333 15.4422 18.1577 15.8661 17.8451 16.1787C17.5326 16.4912 17.1087 16.6668 16.6666 16.6668H3.33329C2.89127 16.6668 2.46734 16.4912 2.15478 16.1787C1.84222 15.8661 1.66663 15.4422 1.66663 15.0002V5.00016Z" stroke="white" stroke-width="1.66667" stroke-linecap="round" stroke-linejoin="round"/>
<path d="M1.66663 6.6665L7.91746 11.6673C8.50853 12.1403 9.24297 12.3979 9.99996 12.3979C10.7569 12.3979 11.4914 12.1403 12.0825 11.6673L18.3333 6.6665" stroke="white" stroke-width="1.66667" stroke-linecap="round" stroke-linejoin="round"/>
</svg>
