<svg width="20" height="21" viewBox="0 0 20 21" fill="none" xmlns="http://www.w3.org/2000/svg">
<path d="M9.5452 18.7694C4.4492 18.7694 1.3992 17.6942 1.2504 17.1386C1.2544 14.3814 4.974 12.139 9.5452 12.139C14.116 12.139 17.8352 14.381 17.84 17.1378C17.6952 17.6934 14.6444 18.7694 9.5452 18.7694ZM4.7276 6.07941C4.7276 3.42741 6.8888 1.26941 9.5452 1.26941C12.2016 1.26941 14.3628 3.42741 14.3628 6.07941C14.3628 8.73141 12.2016 10.889 9.5452 10.889C6.8888 10.889 4.7276 8.73141 4.7276 6.07941ZM12.7148 11.2366C14.45 10.169 15.6128 8.25941 15.6128 6.07941C15.6128 2.73781 12.8908 0.0194092 9.5452 0.0194092C6.1996 0.0194092 3.4776 2.73781 3.4776 6.07941C3.4776 8.25941 4.6404 10.169 6.3756 11.2366C2.6292 12.0758 0 14.3686 0 17.143C0 19.4134 6.0004 20.0194 9.5452 20.0194C13.09 20.0194 19.0904 19.4134 19.0904 17.143C19.0904 14.3686 16.4612 12.0758 12.7148 11.2366Z" fill="black"/>
</svg>
