<svg width="21" height="21" viewBox="0 0 21 21" fill="none" xmlns="http://www.w3.org/2000/svg">
<path d="M11.735 15.5353C7.79737 15.5353 4.59396 12.3319 4.59396 8.39387C4.59396 4.45624 7.79737 1.25243 11.735 1.25243C15.673 1.25243 18.8769 4.45624 18.8769 8.39387C18.8769 12.3319 15.673 15.5353 11.735 15.5353V15.5353ZM11.735 -2.1942e-06C7.10683 -2.1942e-06 3.34153 3.7653 3.34153 8.39387C3.34153 10.4831 4.11343 12.392 5.38108 13.8629L0.273988 18.97C0.0291133 19.2145 0.0291133 19.6108 0.273988 19.8553C0.396225 19.9775 0.556129 20.0388 0.71644 20.0388C0.877151 20.0388 1.03706 19.9775 1.1593 19.8553L6.2664 14.7482C7.73685 16.0158 9.64575 16.7877 11.735 16.7877C16.364 16.7877 20.1293 13.0224 20.1293 8.39387C20.1293 3.7653 16.364 -2.1942e-06 11.735 -2.1942e-06Z" fill="black"/>
</svg>
