<svg width="56" height="40" viewBox="0 0 56 40" fill="none" xmlns="http://www.w3.org/2000/svg">
<rect x="0.516805" y="1.39428" width="55.084" height="37.5166" rx="2.79412" fill="white" stroke="#D9D9D9" stroke-width="0.798319"/>
<path d="M24.4435 29.3622L24.786 27.187L24.0231 27.1693H20.3802L22.9119 11.1184C22.9196 11.0699 22.9452 11.0247 22.9826 10.9926C23.0199 10.9606 23.0678 10.9429 23.1175 10.9429H29.2601C31.2994 10.9429 32.7067 11.3672 33.4415 12.2047C33.7859 12.5975 34.0053 13.0081 34.1115 13.4599C34.2227 13.934 34.2248 14.5004 34.116 15.1912L34.1081 15.2416V15.6842L34.4527 15.8794C34.7428 16.0332 34.9731 16.2094 35.15 16.4111C35.4448 16.747 35.6354 17.1739 35.7159 17.68C35.799 18.2006 35.7715 18.82 35.6354 19.5213C35.4782 20.328 35.2241 21.0306 34.881 21.6055C34.5652 22.1353 34.1631 22.5745 33.6858 22.9151C33.23 23.2386 32.6884 23.4842 32.0761 23.6414C31.4827 23.7958 30.8063 23.8738 30.0643 23.8738H29.5863C29.2445 23.8738 28.9123 23.9969 28.6518 24.2176C28.3905 24.4428 28.2175 24.7505 28.1645 25.0871L28.1285 25.2829L27.5234 29.1166L27.4959 29.2574C27.4887 29.3021 27.4763 29.3243 27.458 29.3394C27.4416 29.353 27.418 29.3622 27.395 29.3622H24.4435Z" fill="#253B80"/>
<path d="M34.7773 15.2935C34.759 15.4107 34.738 15.5305 34.7145 15.6536C33.9043 19.8122 31.133 21.2488 27.5933 21.2488H25.7912C25.3583 21.2488 24.9936 21.5631 24.9261 21.99L24.0033 27.8413L23.742 29.4998C23.6981 29.7801 23.9143 30.0329 24.1971 30.0329H27.3937C27.7722 30.0329 28.0936 29.7579 28.1532 29.3847L28.1847 29.2222L28.7866 25.4034L28.8252 25.194C28.884 24.8195 29.2062 24.5445 29.5847 24.5445H30.0628C33.1596 24.5445 35.5841 23.2873 36.2927 19.6491C36.5887 18.1294 36.4354 16.8604 35.6521 15.9679C35.4152 15.6988 35.1211 15.4755 34.7773 15.2935Z" fill="#179BD7"/>
<path d="M33.9283 14.9545C33.8046 14.9185 33.6768 14.8858 33.5458 14.8563C33.4142 14.8275 33.2792 14.802 33.1405 14.7797C32.6545 14.7011 32.1221 14.6638 31.5517 14.6638H26.7371C26.6186 14.6638 26.506 14.6907 26.4052 14.7391C26.1831 14.8458 26.0182 15.056 25.9782 15.3134L24.9538 21.7998L24.9244 21.989C24.9919 21.5621 25.3567 21.2478 25.7895 21.2478H27.5917C31.1313 21.2478 33.9028 19.8105 34.7128 15.6526C34.737 15.5295 34.7573 15.4096 34.7756 15.2924C34.5707 15.1837 34.3486 15.0907 34.1096 15.0115C34.0508 14.9919 33.9899 14.9729 33.9283 14.9545Z" fill="#222D65"/>
<path d="M25.981 15.3142C26.0209 15.0569 26.1861 14.8467 26.408 14.7406C26.5096 14.6921 26.6215 14.6653 26.7399 14.6653H31.5547C32.1251 14.6653 32.6575 14.7026 33.1432 14.7812C33.2822 14.8035 33.4171 14.829 33.5487 14.8578C33.6797 14.8873 33.8074 14.92 33.9312 14.956C33.9927 14.9744 34.0536 14.9933 34.1131 15.0123C34.3522 15.0916 34.5742 15.1852 34.7791 15.2933C35.0202 13.7564 34.7773 12.7101 33.9463 11.7626C33.0301 10.7195 31.3765 10.2729 29.2607 10.2729H23.1179C22.6856 10.2729 22.3171 10.5872 22.2502 11.0148L19.6917 27.2308C19.6412 27.5516 19.8887 27.8411 20.2122 27.8411H24.0046L24.9568 21.8006L25.981 15.3142Z" fill="#253B80"/>
</svg>
