<svg width="56" height="40" viewBox="0 0 56 40" fill="none" xmlns="http://www.w3.org/2000/svg">
<rect x="0.39916" y="1.39428" width="55.084" height="37.5166" rx="2.79412" fill="white" stroke="#D9D9D9" stroke-width="0.798319"/>
<path fill-rule="evenodd" clip-rule="evenodd" d="M35.4074 31.0179C41.4246 31.0179 46.3025 26.0839 46.3025 19.9976C46.3025 13.9113 41.4246 8.97729 35.4074 8.97729C32.7107 8.97729 30.2428 9.96833 28.3402 11.61C26.4377 9.96843 23.9699 8.97746 21.2732 8.97746C15.2561 8.97746 10.3782 13.9114 10.3782 19.9978C10.3782 26.0841 15.2561 31.0181 21.2732 31.0181C23.97 31.0181 26.4379 30.027 28.3404 28.3854C30.2429 30.0269 32.7108 31.0179 35.4074 31.0179Z" fill="#ED0006"/>
<path fill-rule="evenodd" clip-rule="evenodd" d="M28.3403 28.385C30.6829 26.3637 32.1683 23.356 32.1683 19.9974C32.1683 16.6387 30.6829 13.631 28.3403 11.6097C30.2428 9.96805 32.7107 8.97705 35.4074 8.97705C41.4246 8.97705 46.3025 13.911 46.3025 19.9974C46.3025 26.0837 41.4246 31.0177 35.4074 31.0177C32.7107 31.0177 30.2428 30.0266 28.3403 28.385Z" fill="#F9A000"/>
<path fill-rule="evenodd" clip-rule="evenodd" d="M28.3403 28.385C30.6829 26.3636 32.1683 23.3559 32.1683 19.9973C32.1683 16.6387 30.6829 13.6309 28.3403 11.6096C25.9978 13.6309 24.5124 16.6387 24.5124 19.9973C24.5124 23.3559 25.9978 26.3636 28.3403 28.385Z" fill="#FF5E00"/>
</svg>
