<svg width="56" height="40" viewBox="0 0 56 40" fill="none" xmlns="http://www.w3.org/2000/svg">
<rect x="0.457959" y="1.39428" width="55.084" height="37.5166" rx="2.79412" fill="white" stroke="#D9D9D9" stroke-width="0.798319"/>
<path d="M23.967 26.6705H20.8073L22.7836 14.4519H25.9432L23.967 26.6705Z" fill="#00579F"/>
<path d="M35.4201 14.7504C34.7969 14.5032 33.8084 14.2302 32.5861 14.2302C29.4658 14.2302 27.2685 15.894 27.255 18.2726C27.2291 20.0275 28.8282 21.0023 30.0242 21.5874C31.2467 22.1854 31.6622 22.5756 31.6622 23.1086C31.6498 23.9272 30.6744 24.3045 29.7647 24.3045C28.5032 24.3045 27.8273 24.11 26.8001 23.6546L26.384 23.4593L25.9418 26.2021C26.6829 26.5397 28.0483 26.8393 29.4658 26.8524C32.7812 26.8524 34.9396 25.2144 34.9652 22.6796C34.9778 21.2887 34.1334 20.2229 32.3129 19.352C31.2078 18.7929 30.531 18.416 30.531 17.8439C30.544 17.3239 31.1034 16.7913 32.351 16.7913C33.3782 16.7652 34.1329 17.0121 34.7046 17.2591L34.9904 17.3889L35.4201 14.7504Z" fill="#00579F"/>
<path d="M39.6213 22.3419C39.8815 21.64 40.8828 18.9232 40.8828 18.9232C40.8697 18.9493 41.1425 18.2083 41.2985 17.7534L41.5194 18.8063C41.5194 18.8063 42.1177 21.731 42.2476 22.3419C41.7538 22.3419 40.2454 22.3419 39.6213 22.3419ZM43.5216 14.4519H41.0775C40.3239 14.4519 39.7512 14.6727 39.4261 15.4657L34.7327 26.6704H38.0481C38.0481 26.6704 38.5939 25.1623 38.7113 24.8375C39.075 24.8375 42.3002 24.8375 42.7681 24.8375C42.8588 25.2665 43.1451 26.6704 43.1451 26.6704H46.0707L43.5216 14.4519Z" fill="#00579F"/>
<path d="M18.1679 14.4519L15.0735 22.7838L14.7354 21.094C14.1633 19.1442 12.3691 17.0258 10.3669 15.9724L13.2012 26.6576H16.5425L21.5091 14.4519H18.1679Z" fill="#00579F"/>
<path d="M12.2001 14.4519H7.11639L7.06438 14.6988C11.03 15.7129 13.6563 18.1573 14.7353 21.0953L13.6302 15.4791C13.4483 14.6986 12.8891 14.4776 12.2001 14.4519Z" fill="#FAA61A"/>
</svg>
