<svg width="13" height="18" viewBox="0 0 13 18" fill="none" xmlns="http://www.w3.org/2000/svg">
<path d="M12.6331 14.9068C12.6385 14.7913 12.6192 14.676 12.5766 14.5685C12.534 14.4611 12.469 14.3639 12.3859 14.2835L9.87072 11.6679L9.85515 11.6636C9.74482 11.5592 9.60842 11.4864 9.46026 11.4529C9.219 11.3828 8.96015 11.4068 8.73587 11.52L7.5951 12.1774C7.5588 12.1946 7.51914 12.2036 7.47895 12.2038C7.44294 12.2073 7.40662 12.2057 7.37106 12.199L7.18732 12.1061C7.00541 12.0002 6.8376 11.8718 6.68789 11.7239C6.41727 11.4636 6.16669 11.1832 5.9383 10.8852C5.58659 10.424 5.27312 9.93489 5.00101 9.4227C4.70476 8.92862 4.44966 8.411 4.23829 7.87507C4.10258 7.52651 3.99454 7.16779 3.91518 6.80225C3.85182 6.53157 3.82742 6.25323 3.84271 5.97565C3.85543 5.9361 3.87428 5.89879 3.89857 5.86508C3.91941 5.83055 3.94771 5.8011 3.98138 5.7789L4.95827 5.22722C5.13212 5.12858 5.27272 4.98049 5.36222 4.80178C5.45714 4.62862 5.48351 4.42611 5.43609 4.23442L4.64817 0.603971C4.60904 0.473099 4.54639 0.350458 4.46326 0.242065C4.38175 0.13552 4.26702 0.0592119 4.13725 0.0252228C4.0434 -0.000433991 3.9453 -0.00659929 3.84898 0.00710355C3.75266 0.0208064 3.66017 0.0540876 3.5772 0.104898L0.926318 1.6013C0.78603 1.67415 0.661317 1.77369 0.559186 1.89434C0.394839 2.10773 0.270638 2.3492 0.192634 2.607C0.115528 2.86448 0.0645542 3.12908 0.040485 3.39678C-0.000766758 3.81287 -0.0105119 4.23149 0.0113328 4.64905C0.0415552 5.21959 0.119843 5.78656 0.245364 6.34394C0.408994 7.07155 0.625798 7.78617 0.89403 8.48205C1.23683 9.36775 1.65024 10.2245 2.13027 11.044C2.68784 12.0782 3.352 13.0514 4.11193 13.9476C4.67054 14.6018 5.28774 15.2037 5.95584 15.7457C6.41133 16.1194 6.90904 16.4383 7.43877 16.6961C7.83358 16.8819 8.24602 17.0276 8.6699 17.1311C8.83111 17.1532 8.99492 17.1473 9.15411 17.1136C9.31017 17.0887 9.45983 17.0334 9.59464 16.9509L12.2415 15.4694C12.3473 15.4142 12.4382 15.3342 12.5064 15.2362C12.5746 15.1382 12.6181 15.0252 12.6331 14.9068Z" fill="white"/>
</svg>
