<svg width="17" height="17" viewBox="0 0 17 17" fill="none" xmlns="http://www.w3.org/2000/svg">
<path d="M8.55106 1.55066C7.07651 1.5524 5.66286 2.13893 4.6202 3.18159C3.57754 4.22426 2.991 5.63791 2.98926 7.11246C2.9875 8.31746 3.38111 9.48976 4.10971 10.4495C4.10971 10.4495 4.2614 10.6493 4.28617 10.6781L8.55106 15.708L12.818 10.6755C12.8402 10.6487 12.9924 10.4495 12.9924 10.4495L12.9929 10.448C13.7212 9.48867 14.1146 8.31691 14.1129 7.11246C14.1111 5.63791 13.5246 4.22426 12.4819 3.18159C11.4393 2.13893 10.0256 1.5524 8.55106 1.55066ZM8.55106 9.13493C8.15105 9.13493 7.76003 9.01631 7.42744 8.79408C7.09484 8.57185 6.83562 8.25598 6.68254 7.88642C6.52946 7.51687 6.48941 7.11021 6.56745 6.71789C6.64549 6.32557 6.83811 5.9652 7.12096 5.68235C7.40381 5.39951 7.76418 5.20688 8.1565 5.12885C8.54882 5.05081 8.95547 5.09086 9.32503 5.24394C9.69459 5.39701 10.0105 5.65624 10.2327 5.98883C10.4549 6.32143 10.5735 6.71245 10.5735 7.11246C10.5729 7.64864 10.3596 8.16268 9.98043 8.54182C9.60128 8.92096 9.08725 9.13426 8.55106 9.13493Z" fill="#070423"/>
</svg>
