<svg width="47" height="47" viewBox="0 0 47 47" fill="none" xmlns="http://www.w3.org/2000/svg">
<path d="M45.8209 25.3931H42.8569C42.7279 25.3931 42.6041 25.3418 42.5128 25.2506C42.4216 25.1593 42.3703 25.0355 42.3703 24.9065V17.6233C42.3648 16.6971 42.0463 15.7999 41.4664 15.0777C40.8865 14.3554 40.0794 13.8505 39.1763 13.645C39.054 13.6178 38.947 13.5444 38.8776 13.4402L30.3499 0.64921C30.2089 0.435193 29.9905 0.28417 29.7405 0.227871C29.4905 0.171573 29.2284 0.214373 29.0094 0.347315L22.4545 4.28026C22.379 4.32581 22.2925 4.34991 22.2043 4.34993C22.0988 4.34955 21.9963 4.31511 21.9119 4.25175L16.782 0.404331C16.5731 0.248873 16.3117 0.181188 16.0536 0.215695C15.7955 0.250202 15.5611 0.384159 15.4003 0.589037L5.47194 13.3526C5.42681 13.4113 5.36881 13.4589 5.30237 13.4917C5.23594 13.5245 5.16284 13.5415 5.08877 13.5415H4.45544C3.37287 13.5421 2.33477 13.9722 1.56908 14.7375C0.803386 15.5028 0.372701 16.5407 0.371582 17.6233V42.5593C0.37298 43.6418 0.803769 44.6795 1.5694 45.4447C2.33503 46.21 3.37295 46.6402 4.45544 46.641H38.2875C39.3698 46.6402 40.4075 46.2099 41.1728 45.4446C41.9381 44.6793 42.3684 43.6416 42.3693 42.5593V36.7538C42.3693 36.6248 42.4206 36.501 42.5118 36.4098C42.6031 36.3185 42.7268 36.2672 42.8559 36.2672H45.8198C46.0837 36.2667 46.3365 36.1616 46.523 35.9751C46.7096 35.7885 46.8146 35.5357 46.8152 35.2719V26.3885C46.8149 26.1248 46.7101 25.8719 46.5237 25.6853C46.3374 25.4987 46.0846 25.3936 45.8209 25.3931ZM24.5138 5.36324L28.8225 2.77823C28.8979 2.73242 28.9845 2.70831 29.0727 2.70855C29.1528 2.70855 29.2317 2.72842 29.3022 2.76637C29.3728 2.80432 29.4328 2.85917 29.477 2.92602L36.0477 12.7826C36.0966 12.8558 36.1247 12.941 36.129 13.029C36.1333 13.1169 36.1137 13.2044 36.0722 13.2821C36.0307 13.3598 35.9689 13.4247 35.8934 13.47C35.8179 13.5154 35.7315 13.5394 35.6434 13.5394H34.4591C34.3539 13.5391 34.2517 13.5046 34.1678 13.4412L24.4716 6.16968C24.4081 6.12161 24.3573 6.0587 24.3236 5.98645C24.29 5.91421 24.2746 5.83484 24.2788 5.75527C24.283 5.6757 24.3066 5.59834 24.3476 5.53C24.3885 5.46167 24.4456 5.40441 24.5138 5.36324ZM8.45909 12.752L16.078 2.95662C16.1234 2.89805 16.1817 2.85064 16.2483 2.81807C16.3149 2.7855 16.388 2.76863 16.4622 2.76872C16.5674 2.76864 16.6698 2.80315 16.7535 2.86691L29.8137 12.6612C29.8954 12.7224 29.9558 12.8078 29.9864 12.9053C30.0169 13.0028 30.016 13.1073 29.9837 13.2043C29.9515 13.3012 29.8896 13.3855 29.8068 13.4452C29.724 13.505 29.6245 13.5372 29.5223 13.5373H27.0059C26.9101 13.5369 26.8165 13.5083 26.7368 13.455L18.2186 7.77618C18.007 7.63456 17.7491 7.57972 17.4982 7.62294C17.2473 7.66617 17.0227 7.80415 16.8707 8.0084L12.8713 13.342C12.8259 13.4026 12.7671 13.4517 12.6995 13.4856C12.6319 13.5195 12.5574 13.5372 12.4817 13.5373H8.84332C8.75222 13.5373 8.66294 13.5118 8.58565 13.4636C8.50836 13.4153 8.44617 13.3464 8.40613 13.2646C8.3661 13.1827 8.34984 13.0913 8.3592 13.0007C8.36857 12.9101 8.40317 12.8239 8.45909 12.752ZM22.1294 13.1911C22.0992 13.2911 22.0377 13.3788 21.9538 13.4411C21.87 13.5035 21.7683 13.5372 21.6639 13.5373H16.1835C16.0932 13.5372 16.0046 13.512 15.9278 13.4644C15.8509 13.4168 15.7889 13.3487 15.7486 13.2678C15.7082 13.187 15.6912 13.0965 15.6994 13.0065C15.7077 12.9165 15.7408 12.8305 15.7951 12.7583L17.6212 10.3232C17.6959 10.2241 17.8057 10.1572 17.9281 10.1362C18.0505 10.1152 18.1763 10.1417 18.2798 10.2103L21.933 12.6454C22.0204 12.7033 22.0867 12.788 22.1221 12.8867C22.1575 12.9854 22.16 13.0929 22.1294 13.1932V13.1911ZM40.3796 42.5625C40.379 43.1169 40.1586 43.6484 39.7665 44.0404C39.3745 44.4324 38.843 44.6529 38.2886 44.6535H4.4565C3.90182 44.6532 3.36992 44.4329 2.9775 44.0409C2.58509 43.6488 2.36421 43.1171 2.36337 42.5625V17.6212C2.36393 17.0663 2.58467 16.5343 2.97712 16.1421C3.36956 15.7498 3.90164 15.5294 4.4565 15.5291H38.2886C38.8432 15.5297 39.3748 15.7503 39.7669 16.1425C40.159 16.5348 40.3793 17.0666 40.3796 17.6212V24.9044C40.3797 24.9682 40.3673 25.0315 40.3429 25.0905C40.3186 25.1495 40.2828 25.2032 40.2377 25.2484C40.1926 25.2936 40.1391 25.3295 40.0801 25.3539C40.0211 25.3784 39.9579 25.391 39.894 25.391H35.4481C34.0183 25.4109 32.6537 25.9929 31.6496 27.0111C30.6455 28.0292 30.0826 29.4018 30.0826 30.8318C30.0826 32.2618 30.6455 33.6343 31.6496 34.6525C32.6537 35.6706 34.0183 36.2526 35.4481 36.2725H39.894C39.9579 36.2725 40.0211 36.2851 40.0801 36.3096C40.1391 36.3341 40.1926 36.3699 40.2377 36.4151C40.2828 36.4603 40.3186 36.514 40.3429 36.573C40.3673 36.632 40.3797 36.6953 40.3796 36.7591V42.5625ZM44.8255 33.7952C44.8255 33.9242 44.7743 34.048 44.683 34.1392C44.5917 34.2305 44.468 34.2818 44.3389 34.2818H35.4481C34.5331 34.2818 33.6556 33.9183 33.0086 33.2713C32.3616 32.6243 31.9981 31.7468 31.9981 30.8318C31.9981 29.9168 32.3616 29.0392 33.0086 28.3922C33.6556 27.7452 34.5331 27.3817 35.4481 27.3817H44.3389C44.4028 27.3816 44.4662 27.3941 44.5253 27.4185C44.5844 27.4429 44.6381 27.4787 44.6833 27.5239C44.7285 27.5692 44.7643 27.6228 44.7888 27.6819C44.8132 27.741 44.8256 27.8044 44.8255 27.8683V33.7952Z" fill="white"/>
<path d="M35.5292 29.8379C35.3323 29.8379 35.1399 29.8963 34.9762 30.0057C34.8125 30.1151 34.6849 30.2705 34.6096 30.4524C34.5342 30.6343 34.5145 30.8344 34.5529 31.0275C34.5913 31.2206 34.6862 31.3979 34.8254 31.5371C34.9646 31.6763 35.1419 31.7711 35.335 31.8095C35.5281 31.848 35.7282 31.8283 35.9101 31.7529C36.092 31.6776 36.2474 31.55 36.3568 31.3863C36.4662 31.2226 36.5246 31.0302 36.5246 30.8333C36.5243 30.5694 36.4193 30.3164 36.2327 30.1298C36.0461 29.9432 35.7931 29.8382 35.5292 29.8379Z" fill="white"/>
<path d="M7.2948 20.9482C7.03081 20.9482 6.77766 21.0531 6.59099 21.2397C6.40432 21.4264 6.29944 21.6796 6.29944 21.9436V38.2421C6.29944 38.5061 6.40432 38.7593 6.59099 38.9459C6.77766 39.1326 7.03081 39.2375 7.2948 39.2375C7.55879 39.2375 7.81198 39.1326 7.99864 38.9459C8.18531 38.7593 8.29017 38.5061 8.29017 38.2421V21.9436C8.29017 21.8129 8.26443 21.6834 8.2144 21.5627C8.16438 21.4419 8.09107 21.3322 7.99864 21.2397C7.90622 21.1473 7.79648 21.074 7.67571 21.024C7.55495 20.974 7.42552 20.9482 7.2948 20.9482Z" fill="white"/>
</svg>
