<svg width="49" height="49" viewBox="0 0 49 49" fill="none" xmlns="http://www.w3.org/2000/svg">
<path d="M24.6007 48.1861C22.8461 48.1861 21.6206 46.7148 20.4347 45.2886C19.8803 44.4561 19.1382 43.7654 18.268 43.2721C18.0804 43.2183 17.8858 43.193 17.6906 43.197C16.8327 43.2597 15.9846 43.4188 15.1623 43.6714L15.114 43.6842C14.1179 43.9908 13.0877 44.1732 12.0469 44.2273C11.3627 44.2546 10.6872 44.067 10.1152 43.6907C8.71151 42.7152 8.62243 40.85 8.53551 39.0471C8.60033 38.0525 8.41898 37.0573 8.00752 36.1496C7.22254 35.4871 6.29287 35.0184 5.29349 34.7813C3.59253 34.1728 1.67908 33.4881 1.13499 31.8891C0.605921 30.3309 1.66513 28.7941 2.68786 27.3078C3.37 26.5277 3.84659 25.5897 4.07438 24.5788C3.84842 23.5717 3.37398 22.6372 2.6943 21.8604C1.66513 20.3655 0.605924 18.8288 1.13714 17.2694C1.68123 15.6704 3.59253 14.9868 5.28061 14.3826C6.28482 14.1449 7.21921 13.6748 8.00859 13.0101C8.42265 12.1077 8.60417 11.116 8.53658 10.1254C8.62244 8.30962 8.71044 6.44447 10.1174 5.46682C10.6892 5.09018 11.3649 4.9025 12.049 4.93024C13.087 4.98426 14.1142 5.16628 15.1075 5.47218L15.1322 5.47863C15.9669 5.73421 16.8276 5.89547 17.6982 5.9594C17.8907 5.96349 18.0827 5.93889 18.268 5.88642C18.8819 5.69755 19.5558 4.93024 20.4369 3.86888C21.6173 2.4448 22.8461 0.971344 24.6018 0.971344C26.3575 0.971344 27.582 2.44265 28.7667 3.86888C29.651 4.93131 30.3228 5.69326 30.9345 5.88642C31.1196 5.93975 31.3118 5.96472 31.5044 5.96047C32.3782 5.89682 33.2422 5.7352 34.08 5.47863L34.1057 5.47218C35.0979 5.16846 36.1237 4.98824 37.1599 4.9356C37.8441 4.90823 38.5196 5.09587 39.0916 5.47218C40.4985 6.44983 40.5865 8.31606 40.6724 10.1211C40.6038 11.1159 40.7853 12.112 41.2004 13.0187C41.9878 13.6822 42.92 14.1516 43.9219 14.3891C45.6164 14.9954 47.5288 15.6769 48.0718 17.278C48.6031 18.8373 47.5438 20.3752 46.519 21.8615C45.8369 22.6402 45.3606 23.5773 45.1335 24.5873C45.3608 25.594 45.8359 26.528 46.5158 27.3046C47.5396 28.7931 48.5966 30.3298 48.0665 31.888C47.5224 33.4871 45.61 34.1707 43.923 34.7748C42.9186 35.0121 41.9841 35.4823 41.195 36.1474C40.7828 37.055 40.6014 38.0504 40.667 39.045C40.5801 40.8522 40.49 42.7163 39.0884 43.6918C38.5143 44.0687 37.8365 44.2563 37.1503 44.2283C36.1108 44.1747 35.082 43.9923 34.0875 43.6853C33.2478 43.4267 32.3817 43.2633 31.5054 43.1981C31.3109 43.1938 31.1169 43.2195 30.9302 43.2743C30.0616 43.7621 29.3215 44.4496 28.771 45.28C27.5809 46.7148 26.3564 48.1861 24.6007 48.1861ZM17.6896 41.1773C18.0892 41.1721 18.4872 41.2279 18.8701 41.3426C20.1358 41.9209 21.2167 42.8384 21.993 43.9933C23.0532 45.2671 23.857 46.1622 24.605 46.1622C25.353 46.1622 26.16 45.265 27.216 43.9965C27.9915 42.8397 29.073 41.9209 30.34 41.3426C30.7227 41.2274 31.1208 41.1717 31.5205 41.1773C32.5681 41.234 33.6047 41.4196 34.6069 41.73C35.4437 41.984 36.3054 42.1469 37.1771 42.2162C37.4451 42.2344 37.7122 42.1688 37.9412 42.0284C38.4402 41.6806 38.5679 40.7567 38.6538 38.9452C38.5681 37.5398 38.8957 36.1401 39.596 34.9187C40.6026 33.9155 41.8644 33.2067 43.2448 32.8689C45.023 32.2336 45.9609 31.8076 46.1562 31.2356C46.3108 30.7805 46.0081 30.1334 44.8609 28.4647C43.9119 27.3661 43.303 26.0152 43.1085 24.5766C43.3013 23.1442 43.9069 21.7988 44.8513 20.7046C46.0082 19.0219 46.3097 18.3759 46.1573 17.9209C45.9609 17.3478 45.023 16.9207 43.2458 16.2875C41.8654 15.9486 40.6037 15.2392 39.5971 14.2356C38.8965 13.0143 38.5689 11.6145 38.6549 10.2091C38.569 8.39655 38.4402 7.47363 37.9423 7.127C37.7134 6.98621 37.4462 6.92055 37.1782 6.9392C36.3065 7.0084 35.4447 7.17138 34.608 7.42534C33.6046 7.73501 32.5669 7.91992 31.5183 7.97587C31.1188 7.98155 30.7208 7.92655 30.3379 7.81275C29.0719 7.23427 27.991 6.3164 27.2149 5.16096C26.1933 3.93112 25.3541 2.99104 24.6029 2.99104C23.8517 2.99104 23.0479 3.88927 21.993 5.15882C21.2171 6.31535 20.1357 7.23404 18.869 7.81275C18.4862 7.92749 18.0881 7.98322 17.6885 7.97801C16.6412 7.922 15.6048 7.73635 14.6032 7.42534C13.7644 7.17205 12.901 7.00909 12.0276 6.9392C11.761 6.92146 11.4954 6.98709 11.2678 7.127C10.7677 7.47255 10.6389 8.39655 10.5531 10.2091C10.6387 11.6148 10.3111 13.0149 9.61082 14.2367C8.60371 15.2392 7.34215 15.9479 5.96207 16.2864C4.18277 16.9217 3.24482 17.3478 3.04951 17.9187C2.89497 18.378 3.19868 19.0273 4.35233 20.7014C5.29746 21.7965 5.90341 23.143 6.09621 24.5766C5.90367 26.0085 5.29932 27.3537 4.35662 28.4486C3.21263 30.1034 2.89605 30.7795 3.04951 31.2388C3.24482 31.8119 4.18277 32.2379 5.95992 32.8721C7.34032 33.2111 8.60195 33.9206 9.60867 34.924C10.3079 36.1459 10.635 37.5453 10.5498 38.9505C10.6346 40.761 10.7645 41.6849 11.2635 42.0326C11.4925 42.1731 11.7596 42.2387 12.0276 42.2204C12.8985 42.1508 13.7595 41.9879 14.5957 41.7343C15.6001 41.4218 16.6393 41.2347 17.6896 41.1773Z" fill="white"/>
<path d="M18.5739 33.1211C18.3444 33.1222 18.1215 33.0441 17.9429 32.9001C17.7341 32.7315 17.6003 32.4872 17.5708 32.2205C17.5412 31.9538 17.6183 31.6862 17.7851 31.476L29.8356 16.412C29.9311 16.2933 30.0521 16.1977 30.1895 16.1321C30.327 16.0665 30.4775 16.0327 30.6298 16.0332C30.8586 16.0323 31.0807 16.1104 31.2586 16.2543C31.4676 16.4225 31.6015 16.6666 31.6311 16.9332C31.6606 17.1999 31.5835 17.4674 31.4164 17.6773L19.3648 32.7423C19.2698 32.8607 19.1493 32.9562 19.0124 33.0217C18.8755 33.0873 18.7257 33.1213 18.5739 33.1211Z" fill="white"/>
<path d="M17.8228 24.083C16.8776 24.0834 15.9534 23.8035 15.1673 23.2786C14.3811 22.7538 13.7683 22.0076 13.4063 21.1344C13.0442 20.2613 12.9493 19.3003 13.1334 18.3732C13.3176 17.4461 13.7725 16.5944 14.4408 15.9258C15.109 15.2573 15.9605 14.8019 16.8876 14.6174C17.8146 14.4328 18.7756 14.5273 19.6489 14.889C20.5223 15.2506 21.2687 15.8631 21.7939 16.649C22.3191 17.4349 22.5994 18.3589 22.5994 19.3042C22.598 20.5708 22.0944 21.7851 21.199 22.681C20.3035 23.5768 19.0894 24.081 17.8228 24.083ZM17.8228 16.5494C17.2782 16.5494 16.7459 16.7109 16.293 17.0134C15.8402 17.3159 15.4872 17.7459 15.2788 18.2491C15.0703 18.7522 15.0157 19.3058 15.1219 19.8399C15.2281 20.3741 15.4902 20.8648 15.8752 21.2499C16.2603 21.6351 16.7508 21.8974 17.2849 22.0038C17.819 22.1102 18.3727 22.0558 18.8759 21.8475C19.3791 21.6393 19.8092 21.2865 20.1119 20.8338C20.4146 20.3811 20.5763 19.8488 20.5765 19.3042C20.5757 18.574 20.2853 17.874 19.7691 17.3576C19.2529 16.8411 18.553 16.5505 17.8228 16.5494Z" fill="white"/>
<path d="M31.3842 34.6278C30.4392 34.6278 29.5155 34.3476 28.7298 33.8226C27.9441 33.2976 27.3317 32.5515 26.9701 31.6785C26.6085 30.8055 26.5139 29.8448 26.6983 28.918C26.8826 27.9912 27.3376 27.1399 28.0058 26.4717C28.674 25.8036 29.5253 25.3485 30.4521 25.1642C31.3789 24.9798 32.3395 25.0745 33.2125 25.4361C34.0855 25.7977 34.8317 26.4101 35.3567 27.1958C35.8817 27.9814 36.1619 28.9052 36.1619 29.8501C36.1605 31.1168 35.6566 32.3312 34.7609 33.2269C33.8653 34.1226 32.6509 34.6264 31.3842 34.6278ZM31.3842 27.0953C30.8393 27.0951 30.3065 27.2565 29.8534 27.5591C29.4002 27.8616 29.047 28.2918 28.8383 28.7951C28.6296 29.2985 28.5749 29.8524 28.6811 30.3869C28.7873 30.9213 29.0495 31.4123 29.4348 31.7977C29.82 32.183 30.3108 32.4455 30.8453 32.5519C31.3797 32.6583 31.9336 32.6038 32.4371 32.3953C32.9405 32.1868 33.3708 31.8337 33.6736 31.3807C33.9763 30.9277 34.1379 30.395 34.1379 29.8501C34.1373 29.1198 33.8471 28.4196 33.3308 27.9032C32.8145 27.3867 32.1144 27.0961 31.3842 27.0953Z" fill="white"/>
</svg>
