<svg width="49" height="49" viewBox="0 0 49 49" fill="none" xmlns="http://www.w3.org/2000/svg">
<path d="M36.8967 36.769C36.6544 36.7694 36.4194 36.6858 36.2319 36.5323C36.0443 36.3788 35.9158 36.165 35.8683 35.9274C35.8207 35.6898 35.857 35.4431 35.9711 35.2292C36.0851 35.0154 36.2698 34.8478 36.4937 34.7549L40.2088 33.206C40.3021 33.1674 40.3819 33.1019 40.438 33.0179C40.4941 32.9339 40.5241 32.8352 40.5241 32.7341V29.0968C40.5241 28.8191 40.6344 28.5528 40.8308 28.3564C41.0271 28.1601 41.2934 28.0497 41.5711 28.0497C41.8488 28.0497 42.1151 28.1601 42.3115 28.3564C42.5078 28.5528 42.6181 28.8191 42.6181 29.0968V33.7756C42.6182 33.9125 42.591 34.048 42.5382 34.1742C42.5229 34.1995 42.5059 34.2236 42.4871 34.2464C42.4627 34.2786 42.4383 34.3119 42.4149 34.3452C42.3916 34.3785 42.3683 34.4196 42.3461 34.4563C42.3339 34.4751 42.3239 34.4962 42.3106 34.514C42.2151 34.6091 42.102 34.6845 41.9775 34.736L37.302 36.6857C37.1738 36.7404 37.036 36.7687 36.8967 36.769Z" fill="white"/>
<path d="M48.8503 10.7711C48.844 10.6489 48.8178 10.5285 48.7726 10.4147C48.7648 10.3958 48.7581 10.377 48.7526 10.3625C48.7078 10.26 48.6471 10.1652 48.5727 10.0816C48.5549 10.0672 48.5372 10.0527 48.5194 10.0361L48.4861 10.0039C48.4556 9.97271 48.4225 9.94412 48.3873 9.91841C48.3583 9.90059 48.3278 9.88534 48.2962 9.87287L48.2396 9.84735C48.2109 9.83417 48.1834 9.81855 48.1574 9.8007L24.8265 0.0799661C24.6998 0.0271938 24.564 0 24.4268 0C24.2896 0 24.1537 0.0271938 24.0271 0.0799661L24.0093 0.0866074L0.692827 9.8007C0.66705 9.81735 0.640371 9.83257 0.612895 9.84624L0.558477 9.87067C0.525186 9.88302 0.493202 9.89863 0.462992 9.91729C0.425931 9.94534 0.391048 9.97615 0.358629 10.0095L0.327524 10.0383L0.276461 10.0827C0.203306 10.1641 0.143704 10.2567 0.0999254 10.357C0.0910429 10.377 0.0843721 10.3958 0.0699381 10.4347C0.0282979 10.5411 0.0046713 10.6536 1.64334e-06 10.7678C0.00104498 10.7855 0.00104498 10.8033 1.64334e-06 10.8211V38.0692C-0.00036503 38.2759 0.0606371 38.478 0.175283 38.65C0.28993 38.8219 0.453043 38.956 0.643966 39.0352L23.9738 48.7559C24.0056 48.7622 24.0368 48.7711 24.0671 48.7826C24.1807 48.8327 24.3037 48.8586 24.4279 48.8586C24.5522 48.8586 24.6751 48.8327 24.7888 48.7826C24.8185 48.772 24.8489 48.7634 24.8798 48.757L48.2096 39.0363C48.4005 38.9571 48.5637 38.8231 48.6783 38.6511C48.793 38.4791 48.854 38.277 48.8536 38.0703V10.8166C48.8514 10.8011 48.8503 10.7878 48.8503 10.7711ZM16.9033 5.31507L24.2314 2.2628C24.2938 2.23645 24.3608 2.22289 24.4285 2.22289C24.4962 2.22289 24.5632 2.23645 24.6255 2.2628L43.9527 10.3159C44.046 10.3548 44.1256 10.4204 44.1817 10.5045C44.2377 10.5885 44.2676 10.6873 44.2676 10.7883C44.2676 10.8894 44.2377 10.9882 44.1817 11.0722C44.1256 11.1563 44.046 11.2219 43.9527 11.2608L36.5136 14.3618C36.4838 14.3702 36.4534 14.3758 36.4226 14.3785L34.8426 13.7323L16.91 6.25992C16.8167 6.22105 16.7371 6.15543 16.6811 6.07136C16.625 5.98729 16.5951 5.88855 16.5951 5.78751C16.5951 5.68648 16.625 5.58771 16.6811 5.50363C16.7371 5.41956 16.8167 5.35395 16.91 5.31507H16.9033ZM23.3787 45.4683C23.3788 45.5356 23.3657 45.6022 23.34 45.6644C23.3143 45.7265 23.2766 45.783 23.2291 45.8306C23.1815 45.8781 23.125 45.9158 23.0629 45.9415C23.0007 45.9672 22.9341 45.9803 22.8668 45.9802C22.7994 45.9799 22.7327 45.9667 22.6703 45.9413L2.40827 37.5029C2.31502 37.4642 2.23532 37.3987 2.17921 37.3147C2.1231 37.2307 2.09306 37.132 2.09291 37.0311V13.1261C2.09276 13.0418 2.11348 12.9588 2.15319 12.8845C2.1929 12.8101 2.25038 12.7468 2.32051 12.7001C2.39064 12.6534 2.47127 12.6247 2.55516 12.6167C2.63905 12.6087 2.72358 12.6216 2.80129 12.6542L23.0644 21.0926C23.1576 21.1314 23.2371 21.1969 23.293 21.2809C23.349 21.3649 23.3788 21.4635 23.3787 21.5644V45.4683ZM24.6222 19.3139C24.4959 19.3656 24.3543 19.3656 24.228 19.3139L4.90091 11.2608C4.80765 11.2219 4.72799 11.1563 4.67195 11.0722C4.61592 10.9882 4.58602 10.8894 4.58602 10.7883C4.58602 10.6873 4.61592 10.5885 4.67195 10.5045C4.72799 10.4204 4.80765 10.3548 4.90091 10.3159L12.8518 7.00385C12.9139 6.97732 12.9808 6.96371 13.0483 6.96386C13.1159 6.96392 13.1827 6.97752 13.2449 7.00385L32.572 15.0569C32.665 15.096 32.7443 15.1616 32.8 15.2455C32.8558 15.3295 32.8856 15.428 32.8856 15.5288C32.8856 15.6296 32.8558 15.7281 32.8 15.8121C32.7443 15.896 32.665 15.9616 32.572 16.0007L24.6222 19.3139ZM46.7585 37.0266C46.7584 37.1275 46.7285 37.2261 46.6726 37.31C46.6167 37.394 46.5373 37.4595 46.4442 37.4985L26.1811 45.9368C26.1187 45.9623 26.0519 45.9755 25.9846 45.9757C25.8488 45.9757 25.7186 45.9218 25.6226 45.8258C25.5266 45.7298 25.4727 45.5996 25.4727 45.4639V21.5689C25.4727 21.4678 25.5027 21.3691 25.5588 21.2851C25.6149 21.2011 25.6947 21.1356 25.788 21.097L46.0501 12.6586C46.1123 12.6323 46.1791 12.6187 46.2466 12.6187C46.3822 12.619 46.5123 12.673 46.6082 12.7689C46.7041 12.8649 46.7582 12.9949 46.7585 13.1305V37.0266Z" fill="white"/>
</svg>
