<svg width="42" height="42" viewBox="0 0 42 42" fill="none" xmlns="http://www.w3.org/2000/svg">
<circle cx="21" cy="21" r="21" fill="white"/>
<path d="M23.0837 20.7002L17.1162 26.6677C16.8843 26.9165 16.7581 27.2456 16.7641 27.5857C16.7701 27.9257 16.9078 28.2501 17.1483 28.4906C17.3888 28.7311 17.7132 28.8688 18.0532 28.8748C18.3933 28.8808 18.7224 28.7546 18.9712 28.5227L25.0962 22.3977L25.4462 22.0477L25.8662 21.6277C26.1119 21.3816 26.25 21.0481 26.25 20.7002C26.25 20.3524 26.1119 20.0188 25.8662 19.7727L18.9712 12.8777C18.7223 12.6459 18.3933 12.5197 18.0532 12.5257C17.7132 12.5317 17.3888 12.6694 17.1483 12.9099C16.9078 13.1504 16.7701 13.4748 16.7641 13.8148C16.7581 14.1548 16.8843 14.4839 17.1162 14.7327L23.0837 20.7002Z" fill="#333333"/>
</svg>
