<svg width="78" height="45" viewBox="0 0 78 45" fill="none" xmlns="http://www.w3.org/2000/svg">
<path d="M76.8182 26.2727H71.7637V31.3272H76.8182V26.2727Z" fill="white"/>
<path d="M70.3734 36.3817C70.46 36.7973 70.5023 37.2209 70.4998 37.6454C70.4998 39.3211 69.8341 40.9281 68.6492 42.113C67.4643 43.2979 65.8573 43.9635 64.1816 43.9635C62.5059 43.9635 60.8988 43.2979 59.714 42.113C58.5291 40.9281 57.8634 39.3211 57.8634 37.6454C57.8608 37.2209 57.9031 36.7973 57.9897 36.3817C58.2815 34.9548 59.0571 33.6724 60.1854 32.7514C61.3138 31.8304 62.7256 31.3274 64.182 31.3274C65.6385 31.3274 67.0503 31.8304 68.1786 32.7514C69.307 33.6724 70.0826 34.9548 70.3743 36.3817H70.3734ZM66.7088 37.6454C66.7088 37.1455 66.5607 36.6569 66.283 36.2413C66.0053 35.8257 65.6105 35.5018 65.1487 35.3105C64.6869 35.1192 64.1787 35.0691 63.6885 35.1667C63.1983 35.2642 62.748 35.5049 62.3946 35.8583C62.0411 36.2118 61.8004 36.6621 61.7029 37.1523C61.6054 37.6426 61.6554 38.1507 61.8467 38.6125C62.0379 39.0743 62.3619 39.469 62.7775 39.7467C63.1931 40.0244 63.6817 40.1726 64.1816 40.1726C64.8512 40.1705 65.4928 39.9036 65.9663 39.4301C66.4398 38.9566 66.7067 38.315 66.7088 37.6454Z" fill="white"/>
<path d="M27.41 36.3817C27.4966 36.7973 27.539 37.2209 27.5364 37.6454C27.5364 39.3211 26.8707 40.9281 25.6858 42.113C24.5009 43.2979 22.8939 43.9635 21.2182 43.9635C19.5425 43.9635 17.9355 43.2979 16.7506 42.113C15.5657 40.9281 14.9 39.3211 14.9 37.6454C14.8974 37.2209 14.9397 36.7973 15.0263 36.3817C15.3181 34.9548 16.0937 33.6724 17.2221 32.7514C18.3504 31.8304 19.7622 31.3274 21.2187 31.3274C22.6751 31.3274 24.0869 31.8304 25.2153 32.7514C26.3436 33.6724 27.1192 34.9548 27.411 36.3817H27.41ZM23.7455 37.6454C23.7455 37.1455 23.5973 36.6569 23.3196 36.2413C23.0419 35.8257 22.6472 35.5018 22.1854 35.3105C21.7236 35.1192 21.2154 35.0691 20.7251 35.1667C20.2349 35.2642 19.7846 35.5049 19.4312 35.8583C19.0777 36.2118 18.837 36.6621 18.7395 37.1523C18.642 37.6426 18.692 38.1507 18.8833 38.6125C19.0746 39.0743 19.3985 39.469 19.8141 39.7467C20.2297 40.0244 20.7183 40.1726 21.2182 40.1726C21.8878 40.1705 22.5294 39.9036 23.0029 39.4301C23.4764 38.9566 23.7433 38.315 23.7455 37.6454Z" fill="white"/>
<path d="M63.0446 11.1091L71.3224 21.2182H57.8638V11.1091H63.0446Z" fill="white"/>
<path d="M76.8182 31.3274V33.8547C76.816 34.5243 76.5491 35.1659 76.0756 35.6394C75.6021 36.1129 74.9605 36.3798 74.2909 36.3819H70.3737C70.0819 34.955 69.3063 33.6726 68.1779 32.7516C67.0496 31.8306 65.6378 31.3276 64.1813 31.3276C62.7249 31.3276 61.3131 31.8306 60.1847 32.7516C59.0564 33.6726 58.2808 34.955 57.989 36.3819H52.8091V6.05469H63.9548C64.4221 6.05483 64.8836 6.15925 65.3054 6.36034C65.7272 6.56143 66.0988 6.85412 66.3932 7.21708L76.0976 19.0834C76.5618 19.6454 76.8165 20.3512 76.8182 21.0801V26.2729H71.7636V31.3274H76.8182ZM71.3214 21.2183L63.0445 11.1092H57.8636V21.2183H71.3214Z" fill="#FF87B3"/>
<path d="M64.1816 40.1727C65.5773 40.1727 66.7088 39.0412 66.7088 37.6454C66.7088 36.2497 65.5773 35.1182 64.1816 35.1182C62.7858 35.1182 61.6543 36.2497 61.6543 37.6454C61.6543 39.0412 62.7858 40.1727 64.1816 40.1727Z" fill="#979FAF"/>
<path d="M7.31836 16.1636V1H52.8092V36.3818H27.4102C27.1185 34.9548 26.3428 33.6724 25.2145 32.7515C24.0862 31.8305 22.6744 31.3275 21.2179 31.3275C19.7614 31.3275 18.3496 31.8305 17.2213 32.7515C16.093 33.6724 15.3173 34.9548 15.0256 36.3818H7.31836V16.1636ZM30.0638 27.5364L43.9638 13.6364L40.1729 9.84545L30.0638 19.9545L25.0093 14.9L21.2184 18.6909L30.0638 27.5364Z" fill="#FF87B3"/>
<path d="M43.9637 13.6364L30.0637 27.5364L21.2183 18.6909L25.0092 14.9L30.0637 19.9545L40.1728 9.84546L43.9637 13.6364Z" fill="white"/>
<path d="M21.2182 40.1727C22.614 40.1727 23.7455 39.0412 23.7455 37.6454C23.7455 36.2497 22.614 35.1182 21.2182 35.1182C19.8224 35.1182 18.6909 36.2497 18.6909 37.6454C18.6909 39.0412 19.8224 40.1727 21.2182 40.1727Z" fill="#979FAF"/>
<path d="M15.0263 36.3817C14.9397 36.7973 14.8974 37.2209 14.9 37.6454C14.9 39.3211 15.5657 40.9281 16.7506 42.113C17.9355 43.2979 19.5425 43.9635 21.2182 43.9635C22.8939 43.9635 24.5009 43.2979 25.6858 42.113C26.8707 40.9281 27.5364 39.3211 27.5364 37.6454C27.539 37.2209 27.4966 36.7973 27.41 36.3817C27.1183 34.9548 26.3427 33.6724 25.2143 32.7514C24.086 31.8304 22.6742 31.3274 21.2177 31.3274C19.7613 31.3274 18.3495 31.8304 17.2211 32.7514C16.0928 33.6724 15.3172 34.9548 15.0254 36.3817H15.0263Z" stroke="#303E58" stroke-width="1.89545" stroke-linecap="round" stroke-linejoin="round"/>
<path d="M57.9897 36.3817C57.9031 36.7973 57.8608 37.2209 57.8634 37.6454C57.8634 39.3211 58.5291 40.9281 59.714 42.113C60.8988 43.2979 62.5059 43.9635 64.1816 43.9635C65.8573 43.9635 67.4643 43.2979 68.6492 42.113C69.8341 40.9281 70.4998 39.3211 70.4998 37.6454C70.5023 37.2209 70.46 36.7973 70.3734 36.3817C70.0817 34.9548 69.306 33.6724 68.1777 32.7514C67.0494 31.8304 65.6376 31.3274 64.1811 31.3274C62.7246 31.3274 61.3128 31.8304 60.1845 32.7514C59.0562 33.6724 58.2806 34.9548 57.9888 36.3817H57.9897Z" stroke="#303E58" stroke-width="1.89545" stroke-linecap="round" stroke-linejoin="round"/>
<path d="M74.2908 36.3818H70.374" stroke="#303E58" stroke-width="1.89545" stroke-linecap="round" stroke-linejoin="round"/>
<path d="M54.8058 36.3819H52.8091V6.05469H63.9548C64.4221 6.05483 64.8836 6.15925 65.3054 6.36034C65.7272 6.56143 66.0988 6.85412 66.3932 7.21708L76.0976 19.0834C76.5618 19.6454 76.8165 20.3512 76.8182 21.0801V33.8547C76.816 34.5243 76.5491 35.1659 76.0756 35.6394C75.6021 36.1129 74.9605 36.3798 74.2909 36.3819" stroke="#303E58" stroke-width="1.89545" stroke-linecap="round" stroke-linejoin="round"/>
<path d="M57.8638 21.2182H71.3215L63.0446 11.1091H57.8638V21.2182Z" stroke="#303E58" stroke-width="1.89545" stroke-linecap="round" stroke-linejoin="round"/>
<path d="M76.8182 26.2727H71.7637V31.3272H76.8182" stroke="#303E58" stroke-width="1.89545" stroke-linecap="round" stroke-linejoin="round"/>
<path d="M52.809 36.3818H32.5908" stroke="#303E58" stroke-width="1.89545" stroke-linecap="round" stroke-linejoin="round"/>
<path d="M7.31836 21.218V36.3816H9.84563" stroke="#303E58" stroke-width="1.89545" stroke-linecap="round" stroke-linejoin="round"/>
<path d="M52.8093 6.05454V1H7.31836V4.79091" stroke="#303E58" stroke-width="1.89545" stroke-linecap="round" stroke-linejoin="round"/>
<path d="M30.0637 27.5364L21.2183 18.6909L25.0092 14.9L30.0637 19.9545L40.1728 9.84546L43.9637 13.6364L30.0637 27.5364Z" stroke="#303E58" stroke-width="1.89545" stroke-linecap="round" stroke-linejoin="round"/>
<path d="M1 16.1636H16.1636" stroke="#979FAF" stroke-width="1.89545" stroke-linecap="round" stroke-linejoin="round"/>
<path d="M4.79102 9.84546H19.9546" stroke="#979FAF" stroke-width="1.89545" stroke-linecap="round" stroke-linejoin="round"/>
</svg>
