<svg width="64" height="64" viewBox="0 0 64 64" fill="none" xmlns="http://www.w3.org/2000/svg">
<path d="M40.1678 46.3523C52.6915 46.3523 62.844 36.1998 62.844 23.6761C62.844 11.1525 52.6915 1 40.1678 1C27.6441 1 17.4917 11.1525 17.4917 23.6761C17.4917 36.1998 27.6441 46.3523 40.1678 46.3523Z" fill="#EBEDF0"/>
<path d="M62.8439 32.9527C62.8439 53.5051 56.6595 59.3603 48.4137 62.844C42.2192 60.2259 37.1994 56.2781 35.0765 45.7746H35.0657C34.3652 42.2917 33.9834 38.0763 33.9834 32.9527C38.4979 32.9527 43.4553 32.7574 48.4137 27.7991C49.0539 28.4488 49.7431 29.0485 50.4751 29.5928C54.743 32.8078 58.9586 32.9527 62.8439 32.9527ZM47.3829 53.5674L58.721 42.2293L55.6288 39.1371L47.3829 47.383L43.26 43.2601L40.1678 46.3523L47.3829 53.5674Z" fill="#FF87B3"/>
<path d="M50.4749 24.7069V29.5928C49.7429 29.0486 49.0537 28.4489 48.4134 27.7991C43.4551 32.7575 38.4977 32.9528 33.9832 32.9528C33.9832 38.0763 34.3647 42.2918 35.0654 45.7746L31.9217 46.8677L25.7373 49.4445V21.6147L50.4749 11.3074V24.7069Z" fill="white"/>
<path d="M50.4748 11.3073L25.7372 21.6147L16.4907 17.7595L41.2283 7.45215L50.4748 11.3073Z" fill="#EBEDF0"/>
<path d="M41.2285 7.45228L16.4909 17.7596L16.4607 17.7496L9.24561 14.74L33.9832 4.43262L41.2285 7.45228Z" fill="#FF87B3"/>
<path d="M33.9835 4.43247L9.24587 14.7398L1 11.3073L25.7376 1L33.9835 4.43247Z" fill="#EBEDF0"/>
<path d="M25.7376 21.6147V49.4445L1 39.1372V11.3074L9.24587 14.7398V26.9133L16.461 29.5516V17.7495L16.4911 17.7595L25.7376 21.6147Z" fill="#FF87B3"/>
<path d="M16.4607 17.7496V29.5515L9.24561 26.9132V14.7397L16.4607 17.7496Z" fill="white"/>
<path d="M1 11.3073L25.7376 1L33.9835 4.43247L41.2288 7.45226L50.4752 11.3073L25.7376 21.6147L16.4912 17.7595L16.461 17.7494L9.24587 14.7398L1 11.3073Z" stroke="#303E58" stroke-width="1.5461" stroke-linecap="round" stroke-linejoin="round"/>
<path d="M9.24561 14.74L33.9832 4.43262" stroke="#303E58" stroke-width="1.5461" stroke-linecap="round" stroke-linejoin="round"/>
<path d="M16.4907 17.7595L41.2283 7.45215" stroke="#303E58" stroke-width="1.5461" stroke-linecap="round" stroke-linejoin="round"/>
<path d="M50.4751 11.3074V24.7069" stroke="#303E58" stroke-width="1.5461" stroke-linecap="round" stroke-linejoin="round"/>
<path d="M1 11.3074V39.1372L25.7376 49.4445L31.922 46.8677" stroke="#303E58" stroke-width="1.5461" stroke-linecap="round" stroke-linejoin="round"/>
<path d="M25.7373 21.6147V49.4445" stroke="#303E58" stroke-width="1.5461" stroke-linecap="round" stroke-linejoin="round"/>
<path d="M16.4607 17.7496V29.5515L9.24561 26.9132V14.7397" stroke="#303E58" stroke-width="1.5461" stroke-linecap="round" stroke-linejoin="round"/>
<path d="M35.0657 45.7746C34.3652 42.2917 33.9834 38.0763 33.9834 32.9527C38.4979 32.9527 43.4553 32.7574 48.4137 27.7991C49.0539 28.4488 49.7431 29.0485 50.4751 29.5928C54.743 32.8078 58.9586 32.9527 62.8439 32.9527C62.8439 53.5051 56.6595 59.3603 48.4137 62.844C42.2192 60.2259 37.1994 56.2781 35.0765 45.7746" stroke="#303E58" stroke-width="1.5461" stroke-linecap="round" stroke-linejoin="round"/>
<path d="M47.3831 53.5675L40.168 46.3523L43.2602 43.2601L47.3831 47.3831L55.629 39.1372L58.7212 42.2294L47.3831 53.5675Z" stroke="#303E58" stroke-width="1.5461" stroke-linecap="round" stroke-linejoin="round"/>
</svg>
