<svg width="182" height="35" viewBox="0 0 182 35" fill="none" xmlns="http://www.w3.org/2000/svg">
<path d="M15.9321 3.2295C16.2293 2.31489 17.5232 2.31488 17.8204 3.22949L20.4423 11.2991C20.5752 11.7081 20.9564 11.985 21.3865 11.985L29.8713 11.985C30.833 11.985 31.2328 13.2156 30.4548 13.7809L23.5905 18.7681C23.2425 19.0209 23.0969 19.469 23.2298 19.878L25.8518 27.9476C26.149 28.8622 25.1021 29.6228 24.3241 29.0575L17.4598 24.0702C17.1118 23.8174 16.6407 23.8174 16.2927 24.0702L9.42836 29.0575C8.65034 29.6228 7.60353 28.8622 7.9007 27.9476L10.5227 19.878C10.6556 19.469 10.51 19.0209 10.162 18.7681L3.29766 13.7809C2.51964 13.2156 2.91949 11.985 3.88117 11.985L12.366 11.985C12.7961 11.985 13.1772 11.7081 13.3101 11.2991L15.9321 3.2295Z" fill="#FFC300"/>
<path d="M52.9937 3.2295C53.2909 2.31489 54.5849 2.31488 54.882 3.22949L57.504 11.2991C57.6369 11.7081 58.0181 11.985 58.4481 11.985L66.933 11.985C67.8946 11.985 68.2945 13.2156 67.5165 13.7809L60.6521 18.7681C60.3042 19.0209 60.1586 19.469 60.2915 19.878L62.9134 27.9476C63.2106 28.8622 62.1638 29.6228 61.3858 29.0575L54.5214 24.0702C54.1735 23.8174 53.7023 23.8174 53.3544 24.0702L46.49 29.0575C45.712 29.6228 44.6652 28.8622 44.9623 27.9476L47.5843 19.878C47.7172 19.469 47.5716 19.0209 47.2237 18.7681L40.3593 13.7809C39.5813 13.2156 39.9811 11.985 40.9428 11.985L49.4276 11.985C49.8577 11.985 50.2389 11.7081 50.3718 11.2991L52.9937 3.2295Z" fill="#FFC300"/>
<path d="M90.0558 3.2295C90.3529 2.31489 91.6469 2.31488 91.944 3.22949L94.566 11.2991C94.6989 11.7081 95.0801 11.985 95.5101 11.985L103.995 11.985C104.957 11.985 105.356 13.2156 104.578 13.7809L97.7141 18.7681C97.3662 19.0209 97.2206 19.469 97.3535 19.878L99.9754 27.9476C100.273 28.8622 99.2258 29.6228 98.4478 29.0575L91.5834 24.0702C91.2355 23.8174 90.7643 23.8174 90.4164 24.0702L83.552 29.0575C82.774 29.6228 81.7272 28.8622 82.0244 27.9476L84.6463 19.878C84.7792 19.469 84.6336 19.0209 84.2857 18.7681L77.4213 13.7809C76.6433 13.2156 77.0431 11.985 78.0048 11.985L86.4897 11.985C86.9197 11.985 87.3009 11.7081 87.4338 11.2991L90.0558 3.2295Z" fill="#FFC300"/>
<path d="M127.118 3.2295C127.415 2.31489 128.709 2.31488 129.006 3.22949L131.628 11.2991C131.761 11.7081 132.142 11.985 132.572 11.985L141.057 11.985C142.018 11.985 142.418 13.2156 141.64 13.7809L134.776 18.7681C134.428 19.0209 134.282 19.469 134.415 19.878L137.037 27.9476C137.334 28.8622 136.288 29.6228 135.51 29.0575L128.645 24.0702C128.297 23.8174 127.826 23.8174 127.478 24.0702L120.614 29.0575C119.836 29.6228 118.789 28.8622 119.086 27.9476L121.708 19.878C121.841 19.469 121.695 19.0209 121.347 18.7681L114.483 13.7809C113.705 13.2156 114.105 11.985 115.067 11.985L123.551 11.985C123.982 11.985 124.363 11.7081 124.496 11.2991L127.118 3.2295Z" fill="#FFC300"/>
<path d="M164.18 3.2295C164.477 2.31489 165.771 2.31488 166.068 3.22949L168.69 11.2991C168.823 11.7081 169.204 11.985 169.634 11.985L178.119 11.985C179.08 11.985 179.48 13.2156 178.702 13.7809L171.838 18.7681C171.49 19.0209 171.344 19.469 171.477 19.878L174.099 27.9476C174.396 28.8622 173.35 29.6228 172.572 29.0575L165.707 24.0702C165.359 23.8174 164.888 23.8174 164.54 24.0702L157.676 29.0575C156.898 29.6228 155.851 28.8622 156.148 27.9476L158.77 19.878C158.903 19.469 158.757 19.0209 158.409 18.7681L151.545 13.7809C150.767 13.2156 151.167 11.985 152.129 11.985L160.613 11.985C161.044 11.985 161.425 11.7081 161.558 11.2991L164.18 3.2295Z" fill="#FFC300"/>
</svg>
